<svg width="32" height="32" xmlns="http://www.w3.org/2000/svg" xmlns:xlink="http://www.w3.org/1999/xlink" width="200" zoomAndPan="magnify" viewBox="0 0 150 149.999998" height="200" preserveAspectRatio="xMidYMid meet" version="1.0"><path fill="#000000" d="M 100.019531 141.464844 C 111.246094 152.691406 129.449219 152.691406 140.675781 141.464844 C 151.90625 130.238281 151.90625 112.035156 140.675781 100.804688 L 120.347656 80.476562 L 122.890625 77.933594 C 125.695312 75.125 125.695312 70.574219 122.890625 67.769531 C 120.082031 64.960938 115.53125 64.960938 112.722656 67.769531 L 110.183594 70.308594 L 65.515625 25.640625 C 61.5 21.628906 56.390625 18.890625 50.824219 17.777344 L 38.214844 15.257812 C 35.433594 14.699219 32.878906 13.332031 30.871094 11.324219 L 23.785156 4.238281 C 20.976562 1.433594 16.425781 1.433594 13.617188 4.238281 L 3.453125 14.402344 C 0.648438 17.210938 0.648438 21.761719 3.453125 24.566406 L 10.542969 31.65625 C 12.546875 33.664062 13.914062 36.21875 14.472656 39 L 16.992188 51.609375 C 18.105469 57.175781 20.84375 62.285156 24.855469 66.300781 L 69.523438 110.96875 L 66.984375 113.507812 C 64.175781 116.316406 64.175781 120.867188 66.984375 123.671875 C 69.789062 126.480469 74.339844 126.480469 77.148438 123.671875 L 79.6875 121.132812 Z M 79.6875 100.804688 L 35.019531 56.132812 C 33.015625 54.128906 31.644531 51.570312 31.089844 48.789062 L 28.566406 36.179688 C 27.457031 30.617188 24.71875 25.503906 20.707031 21.488281 C 24.71875 25.503906 29.832031 28.238281 35.398438 29.351562 L 48.003906 31.875 C 50.789062 32.429688 53.34375 33.796875 55.351562 35.804688 L 100.019531 80.472656 Z M 79.6875 100.804688 " fill-opacity="1" fill-rule="nonzero"/></svg>