<?xml version="1.0" encoding="iso-8859-1"?>
<!-- Generator: Adobe Illustrator 18.0.0, SVG Export Plug-In . SVG Version: 6.00 Build 0)  -->
<!DOCTYPE svg PUBLIC "-//W3C//DTD SVG 1.1//EN" "http://www.w3.org/Graphics/SVG/1.1/DTD/svg11.dtd">
<svg version="1.1" id="_x32_" xmlns="http://www.w3.org/2000/svg" xmlns:xlink="http://www.w3.org/1999/xlink" x="0px" y="0px"
	 viewBox="0 0 512 512" style="enable-background:new 0 0 512 512;" xml:space="preserve">
<g>
	<rect style="fill:#99D4D9;" width="512" height="512"/>
	<path style="opacity:0.1;fill:#040000;" d="M416.307,171.366c-4.659,4.403-10.803,9.933-16.947,14.951
		c-0.973,0.768-1.997,1.587-3.123,2.458c-0.479,0.387-1.024,0.794-1.528,1.186L256.87,52.122l-0.023-0.024
		c-0.135-0.741-0.269-1.481-0.387-2.127c-0.153-1.024-0.307-1.945-0.461-2.713v0.307c-0.205-1.331-0.358-2.355-0.461-2.969
		c-0.479,3.446-3.373,20.396-7.845,37.061c-0.315,1.166-0.631,2.332-0.961,3.49c-0.819,2.918-1.843,6.144-3.021,9.728l-2.048-1.791
		l-1.434,12.185c-0.87,2.662-1.843,5.479-2.765,8.397l-6.963-3.533l1.587,20.378c-1.28,4.249-2.56,8.653-3.84,13.209l-8.192-3.635
		l2.56,26.88c-0.614,2.816-1.177,5.683-1.69,8.601l-10.649-5.478l6.809,33.229c-0.358,3.891-0.614,7.885-0.819,11.929l-11.571-7.68
		l12.493,48.896c0.205,2.611,0.461,5.171,0.717,7.68l-13.21-5.53l15.053,30.567l-1.433,2.713c-1.127-1.842-2.304-3.686-3.533-5.529
		l-17.152-37.12l-2.765,9.83c-2.099-2.509-4.25-5.018-6.349-7.424l-12.749-24.679l-3.379,7.987
		c-1.792-1.741-3.533-3.379-5.273-4.966l-11.878-18.637l-2.867,5.786c-3.021-2.509-5.991-4.864-8.858-7.118l-9.216-13.977
		l-2.15,5.171c-2.048-1.536-3.994-3.021-5.837-4.403l-6.861-7.372l-0.307,2.048c-2.406-1.895-4.608-3.584-6.553-5.171
		c-11.674-9.524-23.091-20.736-25.242-22.938c1.536,2.663,9.216,16.589,15.155,30.259c0.973,2.252,1.997,4.762,3.123,7.577
		l-1.997-0.307l5.12,8.294c0.819,2.201,1.741,4.557,2.714,6.963l-5.734,0.563l11.059,12.646c1.331,3.328,2.816,6.81,4.454,10.342
		l-6.503,0.973l14.899,16.64c1.024,2.1,2.099,4.147,3.226,6.298l-8.755,0.768l20.531,19.097c1.689,2.714,3.533,5.376,5.427,8.089
		l-10.445-0.256l31.437,26.88c1.434,1.587,2.867,3.174,4.301,4.71v0.103l-7.322,1.28l-28.621-19.814l2.816,7.884
		c-2.867-1.229-5.734-2.406-8.55-3.533l-21.76-14.029l1.434,6.656c-2.151-0.717-4.25-1.383-6.349-2.048l-18.227-9.984l0.717,4.967
		c-3.533-0.922-6.912-1.792-10.189-2.611l-13.875-7.373l0.922,4.353c-2.253-0.564-4.454-1.024-6.553-1.485l-8.755-3.328l0.768,1.485
		c-2.765-0.614-5.222-1.229-7.475-1.792c-13.517-3.482-27.648-8.244-30.362-9.216c2.509,1.434,15.155,9.216,26.419,17.306
		c1.843,1.331,3.891,2.867,6.092,4.506l-1.689,0.359l6.457,3.654l5.685,5.686l-2.721,1.36l6.859,2.777l11.801,11.801l-0.023,0.014
		l0.061,0.024l63.159,63.159l-1.063,0.049l3.738,3.123c-1.587,0.41-3.123,0.871-4.659,1.383l-15.411,1.69l2.56,2.509
		c-2.509,0.819-4.915,1.689-7.219,2.56l-11.622,1.433l2.406,1.997c-1.587,0.614-3.123,1.178-4.557,1.792l-6.809,1.638l1.126,0.512
		c-1.946,0.768-3.738,1.434-5.325,1.997c-2.355,0.819-4.762,1.638-7.066,2.355l3.737,3.738L186.061,512H512V267.059L416.307,171.366
		z M92.613,330.413l-1.205-1.205l1.06,0.418c0.189,0.124,0.383,0.238,0.572,0.361L92.613,330.413z M182.948,372.426l-0.682-0.681
		c0.275,0.091,0.55,0.183,0.825,0.275L182.948,372.426z"/>
	<path style="fill:#73BD53;" d="M255.978,255.958c-0.1-0.501-0.098-0.345,0,0.354C256.076,255.613,256.078,255.458,255.978,255.958z
		"/>
	<path style="fill:#73BD53;" d="M255.972,255.984c0.187-0.371,0.113-0.268-0.173,0.232
		C256.196,255.798,256.273,255.698,255.972,255.984z"/>
	<path style="fill:#73BD53;" d="M255.991,255.995c0.319-0.21,0.214-0.158-0.242,0.116
		C256.248,255.928,256.355,255.879,255.991,255.995z"/>
	<path style="fill:#73BD53;" d="M255.995,255.991c0.279-0.04,0.192-0.038-0.198,0.004
		C256.188,256.023,256.275,256.022,255.995,255.991z"/>
	<path style="fill:#6CB64C;" d="M255.978,255.959c-0.101-0.491-0.098-0.339,0,0.348C256.076,255.62,256.078,255.467,255.978,255.959
		z"/>
	<path style="fill:#6CB64C;" d="M255.972,255.984c0.188-0.364,0.113-0.263-0.173,0.228
		C256.197,255.802,256.275,255.703,255.972,255.984z"/>
	<path style="fill:#6CB64C;" d="M255.991,255.995c0.321-0.206,0.215-0.156-0.243,0.114
		C256.25,255.929,256.357,255.88,255.991,255.995z"/>
	<path style="fill:#6CB64C;" d="M255.993,255.978c0.283,0.006,0.197-0.006-0.196-0.028
		C256.18,256.04,256.266,256.053,255.993,255.978z"/>
	<g>
		<g>
			<linearGradient id="SVGID_1_" gradientUnits="userSpaceOnUse" x1="255.5613" y1="44.6073" x2="255.5613" y2="43.984">
				<stop  offset="0" style="stop-color:#F4E335"/>
				<stop  offset="0.0466" style="stop-color:#F2D92D"/>
				<stop  offset="0.1215" style="stop-color:#EFCB23"/>
				<stop  offset="0.1987" style="stop-color:#EDC41D"/>
				<stop  offset="0.2809" style="stop-color:#ECC11B"/>
				<stop  offset="0.6685" style="stop-color:#E28B32"/>
				<stop  offset="0.8876" style="stop-color:#D96330"/>
				<stop  offset="1" style="stop-color:#D3382C"/>
			</linearGradient>
			<path style="fill:url(#SVGID_1_);" d="M255.561,44.249c-0.102-0.461-0.102-0.307,0,0.358
				C255.664,43.942,255.664,43.788,255.561,44.249z"/>
			<linearGradient id="SVGID_2_" gradientUnits="userSpaceOnUse" x1="424.8159" y1="163.4066" x2="424.8159" y2="162.9607">
				<stop  offset="0" style="stop-color:#F4E335"/>
				<stop  offset="0.0466" style="stop-color:#F2D92D"/>
				<stop  offset="0.1215" style="stop-color:#EFCB23"/>
				<stop  offset="0.1987" style="stop-color:#EDC41D"/>
				<stop  offset="0.2809" style="stop-color:#ECC11B"/>
				<stop  offset="0.6685" style="stop-color:#E28B32"/>
				<stop  offset="0.8876" style="stop-color:#D96330"/>
				<stop  offset="1" style="stop-color:#D3382C"/>
			</linearGradient>
			<path style="fill:url(#SVGID_2_);" d="M424.81,163.179c0.188-0.364,0.113-0.263-0.173,0.228
				C425.035,162.997,425.113,162.898,424.81,163.179z"/>
			<linearGradient id="SVGID_3_" gradientUnits="userSpaceOnUse" x1="498.205" y1="274.4391" x2="498.205" y2="274.1988">
				<stop  offset="0" style="stop-color:#F4E335"/>
				<stop  offset="0.0466" style="stop-color:#F2D92D"/>
				<stop  offset="0.1215" style="stop-color:#EFCB23"/>
				<stop  offset="0.1987" style="stop-color:#EDC41D"/>
				<stop  offset="0.2809" style="stop-color:#ECC11B"/>
				<stop  offset="0.6685" style="stop-color:#E28B32"/>
				<stop  offset="0.8876" style="stop-color:#D96330"/>
				<stop  offset="1" style="stop-color:#D3382C"/>
			</linearGradient>
			<path style="fill:url(#SVGID_3_);" d="M498.218,274.325c0.321-0.206,0.215-0.155-0.243,0.114
				C498.477,274.26,498.584,274.211,498.218,274.325z"/>
			<linearGradient id="SVGID_4_" gradientUnits="userSpaceOnUse" x1="255.9872" y1="468.016" x2="255.9872" y2="44.6073">
				<stop  offset="0" style="stop-color:#F4E335"/>
				<stop  offset="0.0466" style="stop-color:#F2D92D"/>
				<stop  offset="0.1215" style="stop-color:#EFCB23"/>
				<stop  offset="0.1987" style="stop-color:#EDC41D"/>
				<stop  offset="0.2809" style="stop-color:#ECC11B"/>
				<stop  offset="0.6685" style="stop-color:#E28B32"/>
				<stop  offset="0.8876" style="stop-color:#D96330"/>
				<stop  offset="1" style="stop-color:#D3382C"/>
			</linearGradient>
			<path style="fill:url(#SVGID_4_);" d="M460.171,285.465l0.776-1.501l-8.8,3.321c-2.087,0.468-4.269,0.962-6.538,1.478
				l0.918-4.325l-13.88,7.383c-3.277,0.803-6.65,1.657-10.148,2.585l0.708-4.942l-18.321,10.006
				c-2.076,0.644-4.169,1.311-6.286,2.007l1.443-6.667l-21.749,13.998c-2.825,1.124-5.665,2.293-8.517,3.524l2.797-7.813
				l-28.62,19.793l-7.334-1.306l0.012-0.101c0.71-0.76,1.419-1.521,2.078-2.331c0.717-0.717,1.382-1.485,2.048-2.253l0.051-0.051
				l0.102-0.103c0.008-0.009,0.016-0.02,0.024-0.029l31.443-26.825l-10.417,0.27c0.459-0.713,0.968-1.426,1.427-2.14
				c1.382-1.996,2.714-3.943,3.942-5.939c0.051,0,0.051-0.051,0.051-0.051c0.002-0.003,0.003-0.005,0.003-0.005l20.499-19.024
				l-8.777-0.809c0-0.008,0-0.027,0-0.027c1.126-2.151,2.253-4.198,3.328-6.298v-0.027l14.828-16.543l-6.48-0.999
				c0.102-0.304,0.254-0.559,0.406-0.863c1.434-3.277,2.816-6.451,4.096-9.524c0.007-0.016,0.012-0.031,0.019-0.048l10.939-12.557
				l-5.738-0.549c0.001-0.001,0.001-0.003,0.001-0.003l0.052-0.001c0-0.051,0.051-0.154,0.051-0.204
				c0.922-2.304,1.792-4.506,2.611-6.605l0.051-0.102c0.006-0.016,0.012-0.03,0.018-0.046l5.079-8.277l-2.025,0.315v-0.031
				c1.075-2.816,2.15-5.325,3.123-7.577c3.072-7.014,6.554-14.08,9.472-19.661c2.714-5.325,4.915-9.318,5.683-10.598
				c-1.024,1.024-4.096,4.096-8.294,7.987c-4.659,4.403-10.803,9.933-16.947,14.951c-0.973,0.768-1.997,1.638-3.123,2.458
				c-1.075,0.87-2.202,1.741-3.431,2.662l-0.307-1.997l-6.758,7.322l-0.102,0.051c-1.843,1.434-3.789,2.868-5.786,4.403
				l-2.202-5.171l-9.216,13.978h-0.051c-2.867,2.253-5.786,4.609-8.807,7.117l-2.867-5.786l-11.93,18.739l-0.051,0.051
				c-1.741,1.587-3.43,3.174-5.171,4.864l-3.379-8.039l-12.646,24.628l-0.051,0.051c-2.15,2.406-4.25,4.864-6.4,7.424l-2.765-9.779
				l-17.152,37.069l-0.103,0.153c-1.177,1.792-2.304,3.584-3.43,5.376l-1.894-3.533l14.694-29.747l-13.21,5.53
				c0.256-2.509,0.461-4.966,0.666-7.526l0.051-0.359l12.493-48.691l-11.571,7.68c0-0.307-0.051-0.563-0.051-0.87
				c-0.102-1.69-0.205-3.431-0.307-5.12c-0.102-1.997-0.307-3.943-0.461-5.939l6.81-33.229l-10.65,5.478
				c-0.512-2.816-1.075-5.682-1.69-8.447v-0.154l2.56-26.88l-8.192,3.635c-1.28-4.556-2.56-8.909-3.84-13.209v-0.051l1.587-20.327
				l-6.963,3.533c-0.973-2.918-1.895-5.786-2.816-8.448v-0.103l-0.051-0.051l-1.383-11.98l-1.997,1.74
				c-0.205-0.563-0.358-1.075-0.512-1.587c-0.358-0.973-0.666-1.946-0.922-2.867c-0.615-1.844-1.127-3.584-1.587-5.223
				c-2.509-8.909-4.557-18.125-6.093-25.549c-0.256-1.28-0.512-2.458-0.717-3.635c-0.256-1.382-0.512-2.662-0.717-3.84
				c-0.153-0.769-0.307-1.485-0.41-2.151c-0.051-0.511-0.153-1.024-0.256-1.433c-0.103-0.358-0.154-0.666-0.205-0.973
				c-0.205-1.331-0.358-2.355-0.461-2.969c-0.153,1.229-0.666,4.301-1.433,8.448c-1.485,8.089-4.045,20.429-7.373,32.102
				c-0.819,2.918-1.843,6.144-3.021,9.728l-2.048-1.791l-1.434,12.185c-0.87,2.662-1.843,5.479-2.765,8.397l-6.963-3.533
				l1.587,20.378c-1.28,4.249-2.56,8.653-3.84,13.209l-8.192-3.635l2.56,26.88c-0.614,2.816-1.177,5.683-1.69,8.601l-10.649-5.478
				l6.809,33.229c-0.358,3.891-0.614,7.885-0.819,11.929l-11.571-7.68l12.493,48.896c0.205,2.611,0.461,5.171,0.717,7.68
				l-6.042-2.509l-7.168-3.021l15.053,30.567l-1.433,2.713c-1.127-1.842-2.304-3.686-3.533-5.529l-17.152-37.12l-2.765,9.83
				c-2.099-2.509-4.25-5.018-6.349-7.424l-12.749-24.679l-3.379,7.988c-1.792-1.741-3.533-3.379-5.273-4.966l-11.879-18.637
				l-2.867,5.786c-3.021-2.509-5.991-4.864-8.858-7.117l-9.216-13.978l-2.15,5.171c-2.048-1.536-3.994-3.021-5.837-4.403
				l-6.861-7.372l-0.307,2.048c-2.406-1.895-4.608-3.584-6.554-5.171c-11.674-9.524-23.091-20.736-25.241-22.938
				c1.536,2.662,9.216,16.589,15.155,30.259c0.973,2.252,1.997,4.762,3.123,7.577l-1.997-0.307l5.12,8.294
				c0.819,2.201,1.741,4.557,2.714,6.963l-5.734,0.563l11.059,12.646c1.331,3.328,2.816,6.81,4.454,10.342l-6.502,0.973
				l14.899,16.64c1.024,2.1,2.099,4.147,3.226,6.298l-8.755,0.768l20.531,19.098c1.689,2.714,3.533,5.376,5.427,8.089l-10.445-0.256
				l31.437,26.88c1.434,1.587,2.867,3.174,4.301,4.71v0.103l-7.322,1.28l-28.621-19.814l2.816,7.884
				c-2.867-1.229-5.734-2.406-8.55-3.533l-21.76-14.029l1.434,6.656c-2.151-0.717-4.25-1.383-6.349-2.048l-18.227-9.984l0.717,4.967
				c-3.533-0.922-6.912-1.792-10.189-2.611l-13.875-7.373l0.922,4.353c-2.253-0.564-4.454-1.024-6.553-1.485l-8.755-3.328
				l0.768,1.485c-2.765-0.614-5.222-1.229-7.475-1.792c-13.517-3.482-27.648-8.244-30.362-9.216
				c2.509,1.434,15.155,9.216,26.419,17.306c1.843,1.331,3.891,2.867,6.093,4.506l-1.689,0.359l8.141,4.607
				c1.69,1.28,3.431,2.663,5.274,4.096l-3.994,1.996l14.541,5.889c2.662,1.996,5.53,4.044,8.448,6.144l-4.352,2.56l19.61,7.731
				c1.792,1.177,3.584,2.304,5.427,3.43l-6.247,3.124l24.832,7.783c2.662,1.382,5.376,2.816,8.089,4.249l-7.987,2.765l37.325,10.394
				c1.792,0.717,3.533,1.434,5.273,2.099l-6.809,4.198l28.416,3.584c0.768,0.256,1.536,0.512,2.304,0.769l-2.151,6.093l7.168,0.307
				l0.358,0.307c-1.485,0.154-2.97,0.307-4.454,0.512l-28.211,0.41l4.966,3.174c-2.304,0.461-4.557,0.973-6.758,1.434l-18.995,0.871
				l3.738,3.123c-1.587,0.41-3.123,0.871-4.659,1.383l-15.411,1.69l2.56,2.509c-2.509,0.819-4.915,1.689-7.219,2.56l-11.622,1.433
				l2.406,1.997c-1.587,0.614-3.123,1.178-4.557,1.792l-6.809,1.638l1.126,0.512c-1.946,0.768-3.738,1.434-5.325,1.997
				c-2.355,0.819-4.762,1.638-7.066,2.355c-7.27,2.304-13.721,4.096-15.257,4.506c1.843-0.154,10.138-0.666,18.995-0.768
				c1.434-0.051,2.918-0.051,4.352-0.051c1.677,0,3.558,0.05,5.638,0.101l-0.868,0.857l7.142-0.697
				c1.495,0.098,3.035,0.149,4.677,0.199h0.004l-1.579,2.695l11.383-2.492c0.043,0.001,0.082,0.002,0.125,0.003
				c2.403,0.051,4.958,0.051,7.566,0.051l-1.576,3.158l15.073-3.461c0.046-0.002,0.088-0.003,0.134-0.004
				c1.536-0.051,3.123-0.102,4.71-0.256c0.008-0.001,0.017-0.001,0.025-0.002l-2.486,4.204l18.391-5.529
				c0.015-0.002,0.029-0.003,0.043-0.004h0.102c2.184-0.253,4.367-0.508,6.551-0.813l-3.65,4.675l26.814-8.961
				c1.452-0.288,2.904-0.609,4.31-0.938l-2.33,5.012l18.79-9.303c0.016-0.005,0.034-0.009,0.05-0.014h0.051
				c0.556-0.152,1.11-0.304,1.617-0.455l1.264,4.232l16.673-9.971c0.001-0.001,0.003-0.001,0.003-0.001
				c4.912-1.74,9.259-3.428,12.995-5.014c0.082,1.398,0.167,2.854,0.247,4.228c0.254,4.328,0.501,8.538,0.74,12.609
				c0.301,4.071,0.591,8.004,0.871,11.781c0.287,3.776,0.561,7.394,0.822,10.835c0.317,3.441,0.617,6.704,0.899,9.771
				c0.672,6.131,1.257,11.476,1.739,15.878c1.045,8.8,1.642,13.829,1.642,13.829l12.21-0.303c0,0-0.175-5.026-0.48-13.822
				c-0.193-4.396-0.428-9.734-0.697-15.858c-0.081-3.063-0.167-6.322-0.258-9.757c-0.135-3.435-0.277-7.046-0.425-10.814
				c-0.141-3.769-0.288-7.694-0.439-11.756c-0.09-4.064-0.183-8.264-0.278-12.583c-0.054-2.516-0.11-5.149-0.165-7.74
				c4.064,1.628,8.963,3.392,14.447,5.182l17.04,9.628l1.167-4.292c0.547,0.144,1.105,0.286,1.659,0.428l19.075,8.866l-2.486-5.019
				c1.43,0.296,2.848,0.595,4.308,0.879l27.083,8.315l-3.789-4.613c2.282,0.266,4.541,0.492,6.779,0.692l18.483,5.063l-2.574-4.118
				c1.643,0.053,3.262,0.092,4.864,0.119l15.15,3.088l-1.655-3.122c2.661-0.058,5.218-0.141,7.697-0.239l11.433,2.209l-1.658-2.675
				c1.707-0.094,3.347-0.186,4.916-0.277l6.929,0.504l-0.895-0.841c2.051-0.107,3.958-0.196,5.64-0.241
				c10.267-0.276,21.253,0.152,23.364,0.272c-2.059-0.483-12.719-3.182-22.491-6.353c-1.601-0.519-3.405-1.144-5.343-1.827
				l1.095-0.554l-6.79-1.478c-1.479-0.531-3.026-1.084-4.637-1.658l2.343-2.098l-11.59-1.116c-2.35-0.795-4.78-1.599-7.317-2.408
				l2.466-2.526l-15.404-1.326c-1.544-0.428-3.109-0.848-4.699-1.262l3.628-3.223l-19.156-0.374
				c-2.203-0.442-4.434-0.864-6.698-1.255l4.933-3.353l-15.899,0.175l-0.902-2.528c0.781-0.255,1.557-0.506,2.346-0.768
				l28.411-3.563l-6.829-4.226c1.848-0.72,3.707-1.46,5.577-2.218l37.002-10.275l-7.99-2.768c2.771-1.397,5.483-2.825,8.151-4.27
				l24.804-7.772l-6.228-3.08c1.882-1.174,3.726-2.348,5.541-3.524l19.47-7.666l-4.39-2.558c2.932-2.079,5.727-4.109,8.422-6.099
				l14.593-5.932l-4.029-2.011c1.835-1.402,3.596-2.754,5.278-4.048l8.164-4.613l-1.685-0.35c2.209-1.679,4.271-3.226,6.117-4.55
				c11.269-8.083,23.914-15.851,26.375-17.299c-2.698,0.966-16.824,5.717-30.339,9.224
				C465.421,284.238,462.895,284.837,460.171,285.465z"/>
			<linearGradient id="SVGID_5_" gradientUnits="userSpaceOnUse" x1="435.5166" y1="405.2668" x2="435.5166" y2="405.1904">
				<stop  offset="0" style="stop-color:#F4E335"/>
				<stop  offset="0.0466" style="stop-color:#F2D92D"/>
				<stop  offset="0.1215" style="stop-color:#EFCB23"/>
				<stop  offset="0.1987" style="stop-color:#EDC41D"/>
				<stop  offset="0.2809" style="stop-color:#ECC11B"/>
				<stop  offset="0.6685" style="stop-color:#E28B32"/>
				<stop  offset="0.8876" style="stop-color:#D96330"/>
				<stop  offset="1" style="stop-color:#D3382C"/>
			</linearGradient>
			<path style="fill:url(#SVGID_5_);" d="M435.532,405.219c0.283,0.006,0.197-0.006-0.197-0.028
				C435.719,405.28,435.805,405.293,435.532,405.219z"/>
			<linearGradient id="SVGID_6_" gradientUnits="userSpaceOnUse" x1="87.2413" y1="163.3916" x2="87.2413" y2="163.0329">
				<stop  offset="0" style="stop-color:#F4E335"/>
				<stop  offset="0.0466" style="stop-color:#F2D92D"/>
				<stop  offset="0.1215" style="stop-color:#EFCB23"/>
				<stop  offset="0.1987" style="stop-color:#EDC41D"/>
				<stop  offset="0.2809" style="stop-color:#ECC11B"/>
				<stop  offset="0.6685" style="stop-color:#E28B32"/>
				<stop  offset="0.8876" style="stop-color:#D96330"/>
				<stop  offset="1" style="stop-color:#D3382C"/>
			</linearGradient>
			<path style="fill:url(#SVGID_6_);" d="M87.113,163.135c0,0,0.051,0,0.051,0.051c0.051,0.051,0.103,0.102,0.205,0.205
				c-0.154-0.205-0.205-0.307-0.256-0.359C87.113,163.033,87.113,163.084,87.113,163.135z"/>
			<linearGradient id="SVGID_7_" gradientUnits="userSpaceOnUse" x1="13.7949" y1="274.4391" x2="13.7949" y2="274.1988">
				<stop  offset="0" style="stop-color:#F4E335"/>
				<stop  offset="0.0466" style="stop-color:#F2D92D"/>
				<stop  offset="0.1215" style="stop-color:#EFCB23"/>
				<stop  offset="0.1987" style="stop-color:#EDC41D"/>
				<stop  offset="0.2809" style="stop-color:#ECC11B"/>
				<stop  offset="0.6685" style="stop-color:#E28B32"/>
				<stop  offset="0.8876" style="stop-color:#D96330"/>
				<stop  offset="1" style="stop-color:#D3382C"/>
			</linearGradient>
			<path style="fill:url(#SVGID_7_);" d="M14.025,274.439c-0.458-0.269-0.564-0.32-0.243-0.114
				C13.416,274.211,13.523,274.26,14.025,274.439z"/>
			<linearGradient id="SVGID_8_" gradientUnits="userSpaceOnUse" x1="66.7553" y1="412.7411" x2="66.7553" y2="412.6554">
				<stop  offset="0" style="stop-color:#F4E335"/>
				<stop  offset="0.0466" style="stop-color:#F2D92D"/>
				<stop  offset="0.1215" style="stop-color:#EFCB23"/>
				<stop  offset="0.1987" style="stop-color:#EDC41D"/>
				<stop  offset="0.2809" style="stop-color:#ECC11B"/>
				<stop  offset="0.6685" style="stop-color:#E28B32"/>
				<stop  offset="0.8876" style="stop-color:#D96330"/>
				<stop  offset="1" style="stop-color:#D3382C"/>
			</linearGradient>
			<path style="fill:url(#SVGID_8_);" d="M66.741,412.689c-0.271,0.082-0.185,0.066,0.196-0.033
				C66.544,412.687,66.458,412.701,66.741,412.689z"/>
		</g>
		<path style="opacity:0.06;fill:#040000;" d="M465.532,296.255l-0.051,0.051l1.69,0.307l-8.141,4.607l-0.051,0.051
			c-1.639,1.28-3.379,2.611-5.223,4.045l3.993,1.996l-14.541,5.889l-0.051,0.051c-2.714,1.996-5.478,3.993-8.397,6.092l4.352,2.56
			l-19.456,7.68c-0.307,0.205-0.614,0.409-0.973,0.614c-1.485,0.973-3.021,1.894-4.557,2.867l6.195,3.124l-24.678,7.68l-0.051,0.051
			h-0.051c-0.051,0-0.051,0.051-0.103,0.051c-2.611,1.484-5.325,2.816-8.038,4.249l7.987,2.765l-37.017,10.291
			c-0.051,0.051-0.154,0.051-0.205,0.051c-1.792,0.717-3.584,1.485-5.376,2.151l6.861,4.198l-28.416,3.584h-0.051
			c-0.819,0.256-1.536,0.512-2.304,0.769l0.922,2.509l15.872-0.154l-4.915,3.328c2.253,0.41,4.454,0.82,6.707,1.28h0.103
			l19.046,0.359l-3.635,3.226c1.536,0.409,3.072,0.819,4.608,1.229c0.051,0.051,0.051,0.051,0.103,0.051l15.36,1.331l-2.458,2.509
			c1.28,0.409,2.509,0.819,3.738,1.229c1.178,0.409,2.355,0.768,3.533,1.177h0.153l11.52,1.127l-2.355,2.099
			c1.587,0.564,3.123,1.126,4.557,1.639h0.051l6.81,1.485l-1.075,0.563c1.894,0.666,3.738,1.28,5.325,1.844
			c9.779,3.122,20.429,5.836,22.477,6.349c-2.099-0.154-13.107-0.564-23.347-0.307c-1.689,0.051-3.584,0.154-5.632,0.256l0.87,0.819
			l-6.758-0.461h-0.153c-1.587,0.051-3.226,0.154-4.915,0.256l1.639,2.662l-11.366-2.201h-0.051
			c-1.229,0.051-2.509,0.102-3.738,0.154c-1.331,0.051-2.611,0.051-3.942,0.103l1.638,3.123l-15.001-3.072l-0.154-0.051h-0.205
			c-1.536,0-3.072-0.051-4.659-0.103l2.56,4.147l-18.483-5.069c-0.921-0.102-1.894-0.204-2.867-0.307
			c-1.28-0.103-2.611-0.256-3.891-0.41l3.789,4.608l-27.085-8.294c-0.307-0.051-0.614-0.103-0.87-0.205
			c-1.178-0.204-2.304-0.461-3.431-0.665l2.458,5.018l-19.047-8.858c-0.051,0-0.051,0-0.102-0.051
			c-0.512-0.103-1.075-0.256-1.588-0.41l-1.126,4.301l-16.998-9.575l-0.051-0.051h-0.051c-5.478-1.791-10.342-3.533-14.387-5.171
			c0.051,2.56,0.102,5.223,0.154,7.731c0.103,4.301,0.205,8.499,0.256,12.596c0.154,4.044,0.307,7.987,0.461,11.724
			c0.154,3.789,0.307,7.373,0.409,10.855c0.102,3.43,0.205,6.656,0.256,9.727c0.256,6.144,0.512,11.469,0.717,15.872
			c0.307,8.806,0.461,13.824,0.461,13.824l-5.069,0.103V47.27c0.153,0.768,0.307,1.689,0.461,2.713
			c0.307,1.69,0.666,3.738,1.127,5.991c0.205,1.178,0.461,2.355,0.717,3.635c1.536,7.424,3.584,16.64,6.093,25.549
			c0.461,1.638,0.972,3.379,1.587,5.223c0.256,0.921,0.563,1.894,0.922,2.867c0.154,0.512,0.307,1.024,0.512,1.587l1.997-1.74
			l1.433,12.031v0.103c0.922,2.663,1.843,5.53,2.816,8.448l6.963-3.533l-1.587,20.327v0.051c1.28,4.301,2.56,8.653,3.84,13.209
			l8.192-3.635l-2.56,26.88v0.154c0.563,2.765,1.126,5.581,1.638,8.447h0.051l10.65-5.478l-6.81,33.229
			c0.153,1.997,0.358,3.943,0.461,5.939c0.103,1.689,0.205,3.43,0.307,5.12c0,0.308,0.051,0.563,0.051,0.87l11.571-7.68
			l-12.493,48.691l-0.051,0.154v0.205c-0.205,2.56-0.409,5.018-0.666,7.526l13.21-5.53l-14.694,29.696v0.051l1.894,3.533
			c1.126-1.791,2.253-3.584,3.43-5.376l0.103-0.153l17.152-37.069l2.765,9.779c2.15-2.56,4.25-5.018,6.4-7.424l0.051-0.051
			l12.646-24.628l3.379,8.039c1.741-1.69,3.43-3.277,5.171-4.864l0.051-0.051l11.93-18.739l2.867,5.786
			c3.021-2.509,5.939-4.864,8.807-7.117l9.267-13.978l2.202,5.171c1.997-1.536,3.942-2.969,5.786-4.403l6.861-7.372l0.307,1.997
			c1.229-0.922,2.355-1.792,3.431-2.662c1.126-0.871,2.15-1.69,3.123-2.458c6.144-5.018,12.288-10.548,16.947-14.951
			c4.198-3.891,7.27-6.963,8.294-7.987c-0.768,1.28-2.97,5.273-5.683,10.598c-2.918,5.581-6.4,12.646-9.472,19.661
			c-0.973,2.252-2.048,4.762-3.123,7.577v0.051l2.048-0.358l-5.12,8.346l-0.051,0.102l-0.102,0.103c0,0.051-0.051,0.051-0.051,0.102
			c-0.768,2.048-1.587,4.198-2.458,6.4c-0.051,0.051-0.051,0.153-0.102,0.204h0.051l5.683,0.563l-10.956,12.595l-0.103,0.103
			c-1.28,3.072-2.611,6.195-3.994,9.421c-0.153,0.307-0.307,0.563-0.409,0.87l6.502,0.973l-14.848,16.538v0.051l-0.102,0.102
			c-1.075,2.049-2.15,4.147-3.277,6.196h0.051l8.755,0.819l-20.48,19.046c0,0,0,0.051-0.051,0.051
			c-1.229,1.996-2.56,3.943-3.942,5.939c-0.461,0.717-0.973,1.434-1.485,2.151h0.051l10.445-0.256l-31.488,26.829l-0.102,0.103
			l-0.051,0.051c-0.666,0.767-1.331,1.536-2.048,2.253c-0.666,0.767-1.331,1.485-2.099,2.253v0.205l7.322,1.28h0.051l28.57-19.814
			l-2.765,7.834c2.816-1.229,5.683-2.407,8.499-3.533l21.76-13.978l-1.434,6.656c2.099-0.717,4.198-1.383,6.246-1.997l0.102-0.051
			l18.227-9.984l-0.717,4.967c3.533-0.922,6.912-1.792,10.189-2.611l13.875-7.373l-0.922,4.353c2.202-0.512,4.404-1.024,6.451-1.485
			c0.051,0,0.051,0,0.102,0l0.102-0.051l8.653-3.277l-0.768,1.485c0.666-0.154,1.331-0.307,1.997-0.461
			c0.666-0.154,1.331-0.307,1.946-0.461c1.229-0.307,2.457-0.563,3.533-0.87c13.517-3.482,27.648-8.244,30.362-9.216
			c-2.458,1.434-15.104,9.216-26.368,17.306C469.731,293.081,467.734,294.617,465.532,296.255z"/>
	</g>
</g>
</svg>
