<?xml version="1.0" encoding="iso-8859-1"?>
<!-- Generator: Adobe Illustrator 18.0.0, SVG Export Plug-In . SVG Version: 6.00 Build 0)  -->
<!-- パラソルアイコン -->
<!DOCTYPE svg PUBLIC "-//W3C//DTD SVG 1.1//EN" "http://www.w3.org/Graphics/SVG/1.1/DTD/svg11.dtd">
<svg version="1.1" id="_x31_" xmlns="http://www.w3.org/2000/svg" xmlns:xlink="http://www.w3.org/1999/xlink" x="0px" y="0px"
	 viewBox="0 0 512 512" style="enable-background:new 0 0 512 512;" xml:space="preserve">
<g>
	<rect style="fill:#F1EBD9;" width="512" height="512"/>
	<path style="opacity:0.15;fill:#040000;" d="M321.536,100.557l-0.103-0.103l-10.189-10.189c-3.174,0.512-5.939,2.765-7.014,5.99
		l-8.038,24.423c-0.154-0.051-0.358-0.103-0.512-0.154c-1.946-0.563-3.891-1.075-5.837-1.536c-0.41-0.103-0.819-0.205-1.177-0.307
		c-2.304-0.564-4.557-1.076-6.861-1.536c-2.406-0.512-4.813-0.972-7.219-1.382c-6.476-1.177-12.966-1.885-19.441-2.391l-0.066-0.066
		l-0.051-0.051c-3.072-0.256-6.144-0.41-9.165-0.513c-13.927-0.46-27.699,0.461-41.216,2.663c-4.198,0.717-8.346,1.536-12.493,2.457
		c-4.147,0.973-8.243,2.049-12.288,3.226c-2.714,0.768-5.376,1.587-8.038,2.509c-2.458,0.819-4.915,1.689-7.373,2.662
		c-9.984,3.789-19.661,8.294-28.928,13.568l-68.147,68.147L217.805,358.4l0.023,0.023c-3.721,11.228-7.228,20.048-10.786,26.846
		l-3.727-3.728l-10.905-10.905l-18.278-18.279l-1.301-1.301c0.435-2.266,0.027-4.714-1.413-6.788
		c-2.867-3.994-8.448-4.967-12.442-2.151c-13.312,9.37-20.582,26.931-18.125,43.674c0.205,1.383,0.461,2.765,0.819,4.096
		c-0.153-0.307-0.307-0.666-0.461-0.973c0.717,3.379,1.843,6.554,3.328,9.472l0.666,0.666l3.398,3.397
		c2.881,4.404,6.644,8.168,11.209,11.209l1.471,1.47l1.126,1.126L258.15,512H512V291.021L321.536,100.557z"/>
	<g>
		<path style="fill:#745747;" d="M239.462,354.713l-3.072,9.37c-1.997,6.041-4.096,12.134-6.503,17.92
			c-2.56,6.246-5.427,12.186-8.653,17.459c-1.997,3.124-4.096,6.042-6.4,8.602c-11.418,12.851-26.112,16.436-43.52,10.701
			c-3.021-0.973-5.785-2.201-8.397-3.635c-7.014-3.943-12.493-9.421-16.077-16.076c-1.536-2.867-2.714-5.94-3.533-9.165
			c-0.358-1.331-0.614-2.714-0.819-4.096c-1.997-13.619,2.457-27.801,11.366-37.632c1.997-2.253,4.301-4.301,6.758-6.042
			c3.993-2.816,9.574-1.843,12.441,2.151c1.741,2.457,2.048,5.478,1.075,8.089c0,0.051,0,0.051,0,0.103
			c-0.051,0.051-0.051,0.103-0.051,0.154c-0.614,1.639-1.69,3.021-3.226,4.096c-3.891,2.764-6.963,6.962-8.807,11.776
			c-0.205,0.461-0.409,1.024-0.614,1.536c-0.256,0.769-0.512,1.485-0.666,2.304c-0.87,3.584-1.126,7.271-0.614,10.854
			c0.973,6.297,4.608,14.643,16.742,18.637c13.466,4.403,22.528,0.614,31.232-15.462c3.789-7.014,7.527-16.333,11.469-28.313
			l2.918-8.909l12.595,4.147L239.462,354.713z"/>
		<path style="fill:#FCF2D7;" d="M323.161,100.557c-0.103,0.409-0.205,0.87-0.358,1.28l-0.153,0.461l-7.885,23.962l-1.689,5.069
			l-39.68,120.423l-0.256,0.819l-33.689,102.144l-4.352-1.433l-12.595-4.147l28.058-85.198h0.051l4.608-14.029l1.229-3.686v-0.051
			l39.68-120.423l1.689-5.069l8.038-24.423c1.075-3.225,3.84-5.478,7.014-5.99c1.331-0.256,2.816-0.154,4.25,0.307
			C321.369,91.955,323.878,96.307,323.161,100.557z"/>
		<path style="fill:#DB7223;" d="M413.03,202.587c-24.627-35.277-60.229-63.32-103.892-78.379
			c12.886,22.024,21.965,46.772,26.183,73.498c3.077,19.496,3.372,38.789,1.182,57.475c-2.58,22.01-8.614,43.175-17.615,62.841
			c0.024,0.373,0.059,0.744,0.078,1.117c19.995-24.36,53.619-35.231,85.346-24.776c21.279,7.012,37.542,22.246,46.427,41.014
			C453.52,287.522,439.716,240.813,413.03,202.587z"/>
		<path style="fill:#1EACAB;" d="M303.551,122.368c-2.406,1.024-4.813,2.099-7.168,3.276c-0.103,0-0.205,0.051-0.256,0.103
			c-0.461,0.205-0.871,0.41-1.28,0.615c-4.352,2.048-8.602,4.3-12.8,6.707c-0.768,0.461-1.536,0.922-2.304,1.331
			c-0.41,0.256-0.819,0.512-1.229,0.717c-1.587,0.973-3.123,1.894-4.659,2.867c-0.358,0.256-0.717,0.461-1.075,0.717
			c-2.253,1.434-4.454,2.868-6.605,4.403c-0.205,0.154-0.41,0.256-0.614,0.409c-1.946,1.383-3.891,2.816-5.786,4.25
			c-5.12,3.891-10.137,8.039-15.001,12.493c-1.997,1.792-3.994,3.686-5.99,5.632c-14.029,13.875-25.754,29.184-35.123,45.516
			c-10.957,19.2-18.688,39.783-23.142,60.929c-0.256,0.307-0.563,0.614-0.768,0.921c-1.638-31.488-22.17-60.211-53.913-70.656
			c-10.854-3.584-21.914-4.659-32.563-3.533c-6.963,0.716-13.722,2.304-20.173,4.813c-3.072,1.178-6.092,2.56-9.011,4.096
			c18.79-28.723,44.032-51.917,73.062-68.148c9.267-5.274,18.944-9.779,28.928-13.567c2.458-0.973,4.915-1.844,7.373-2.662
			c2.663-0.922,5.325-1.741,8.038-2.509c4.045-1.177,8.141-2.253,12.288-3.226c4.096-0.921,8.294-1.74,12.493-2.458
			c13.517-2.201,27.29-3.122,41.216-2.662c3.021,0.103,6.093,0.256,9.165,0.512c6.503,0.512,13.056,1.331,19.559,2.509
			c2.406,0.41,4.813,0.87,7.219,1.382c2.304,0.461,4.557,0.972,6.861,1.536c0.358,0.102,0.768,0.204,1.177,0.307
			c1.946,0.461,3.891,0.973,5.837,1.536c0.153,0.051,0.358,0.103,0.512,0.154C299.711,121.19,301.657,121.753,303.551,122.368z"/>
		<g style="opacity:0.1;">
			<path style="fill:#040000;" d="M174.118,352.46c-0.051,0.051-0.051,0.103-0.051,0.154c-0.563,1.792-1.69,3.379-3.328,4.557
				c-3.789,2.662-6.809,6.707-8.704,11.315c-0.205,0.461-0.41,1.024-0.615,1.536c-1.485,4.301-2.048,8.96-1.433,13.415
				c-1.331-2.509-1.997-5.069-2.355-7.322c-1.485-9.933,3.021-21.043,10.701-26.471c2.099-1.433,3.328-3.635,3.686-5.939
				c0.307,0.307,0.614,0.666,0.871,1.024C174.528,347.084,174.886,349.952,174.118,352.46z"/>
			<path style="fill:#040000;" d="M323.072,100.454c-0.051,0.308-0.051,0.614-0.154,0.921c0,0.154-0.051,0.307-0.103,0.461
				l-0.153,0.461l-7.885,23.962l-1.69,5.069l-39.68,120.423l-0.256,0.819l-33.689,102.144l-3.072,9.37
				c-1.997,6.041-4.096,12.134-6.503,17.92c-2.509,6.297-5.325,12.237-8.601,17.51c-2.048,3.277-4.249,6.298-6.605,8.96
				c-11.417,12.902-26.061,16.487-43.52,10.752c-2.509-0.819-4.915-1.792-7.117-2.97c-8.038-4.147-14.131-10.24-17.869-17.869
				c-1.485-2.918-2.611-6.092-3.328-9.472c0.154,0.307,0.307,0.666,0.461,0.973c4.659,10.189,13.568,17.869,25.497,21.811
				c17.408,5.734,32.051,2.15,43.52-10.701c1.638-1.792,3.123-3.789,4.557-5.888c7.373-10.701,12.595-24.73,17.152-38.554
				l1.075-3.277l32.205-97.792l1.843-5.53l40.858-124.16l0.41-1.126l9.113-27.75l0.717-2.151c0.205-0.461,0.307-0.973,0.358-1.434
				C322.406,95.181,323.328,97.792,323.072,100.454z"/>
		</g>
		<path style="fill:#DACC38;" d="M336.524,255.18c-2.611,22.016-8.653,43.161-17.613,62.822c-0.666-9.523-3.021-18.841-6.912-27.392
			c-7.578-16.742-20.992-30.771-38.605-38.861c-1.383-0.615-2.816-1.229-4.25-1.792c-1.331-0.512-2.714-1.024-4.096-1.485
			c-2.867-0.921-5.734-1.689-8.602-2.253v-0.051c-2.304-0.461-4.608-0.87-6.912-1.075c-0.819-0.154-1.638-0.205-2.406-0.256
			c-0.154,0-0.358-0.051-0.512-0.051c-0.768-0.051-1.485-0.103-2.202-0.154h-0.205c-1.28-0.051-2.509-0.102-3.738-0.102
			c-13.517,0-26.624,3.482-38.144,9.882c-8.243,4.556-15.667,10.649-21.811,17.92c4.454-21.146,12.186-41.729,23.142-60.929
			c9.37-16.333,21.095-31.641,35.123-45.516c1.997-1.946,3.993-3.84,5.99-5.632c4.864-4.454,9.881-8.601,15.001-12.493
			c1.894-1.434,3.84-2.867,5.786-4.25c0.205-0.153,0.41-0.256,0.614-0.409c2.15-1.536,4.352-2.969,6.605-4.403
			c0.359-0.256,0.717-0.461,1.075-0.717c1.946-1.229,3.891-2.406,5.888-3.584c0.768-0.409,1.536-0.871,2.304-1.331
			c4.198-2.407,8.448-4.659,12.8-6.707c0.409-0.205,0.819-0.41,1.28-0.615c0.051-0.051,0.154-0.103,0.256-0.103
			c2.355-1.177,4.762-2.252,7.168-3.276c0.922,0.307,1.843,0.563,2.765,0.87c0.973,0.308,1.894,0.666,2.816,0.973
			c0.307,0.512,0.614,1.024,0.87,1.587c1.075,1.793,2.099,3.686,3.072,5.53c10.854,20.173,18.483,42.496,22.272,66.355
			c1.177,7.475,1.946,14.95,2.253,22.323C338.265,231.884,337.855,243.66,336.524,255.18z"/>
		<path style="opacity:0.1;fill:#FFFFFF;" d="M401.651,187.75l-46.899,23.603l-17.152,8.653l-63.539,32.051
			c-0.205-0.103-0.461-0.204-0.665-0.307l-0.256,0.819l-5.837,2.919l-16.691,8.447h-0.051l4.659-14.029l1.229-3.686v-0.051
			c-2.304-0.461-4.608-0.87-6.912-1.075c-0.819-0.154-1.638-0.205-2.406-0.256c-0.154,0-0.358-0.051-0.512-0.051
			c-0.768-0.051-1.485-0.154-2.202-0.154h-0.205c-1.28-0.051-2.509-0.102-3.738-0.102c-13.517,0-26.624,3.482-38.144,9.882
			c-8.243,4.556-15.667,10.649-21.811,17.92c-0.256,0.307-0.563,0.614-0.768,0.921c-1.638-31.488-22.17-60.211-53.913-70.656
			c-10.854-3.584-21.914-4.659-32.563-3.533c-6.963,0.716-13.722,2.304-20.173,4.813c-3.072,1.178-6.092,2.56-9.011,4.096
			c18.79-28.723,44.032-51.917,73.062-68.148c9.267-5.274,18.944-9.779,28.928-13.567c2.458-0.973,4.915-1.844,7.373-2.662
			c2.663-0.922,5.325-1.741,8.038-2.509c4.045-1.177,8.141-2.253,12.288-3.226c4.096-0.921,8.294-1.74,12.493-2.458
			c13.517-2.201,27.29-3.122,41.216-2.662c3.072,0.103,6.144,0.308,9.216,0.564c6.502,0.512,13.005,1.331,19.507,2.458
			c2.406,0.41,4.813,0.87,7.219,1.382c2.304,0.461,4.557,0.972,6.861,1.536c0.358,0.102,0.768,0.204,1.177,0.307
			c1.946,0.461,3.891,0.973,5.837,1.536c0.153,0.051,0.358,0.103,0.512,0.154l8.038-24.423c1.075-3.225,3.84-5.478,7.014-5.99
			c1.331-0.256,2.816-0.154,4.25,0.307c4.25,1.382,6.758,5.734,6.042,9.984c-0.051,0.256-0.154,0.563-0.256,0.819
			c0,0.154-0.051,0.308-0.102,0.461l-0.153,0.461l-7.885,23.962c0.256,0.103,0.461,0.204,0.717,0.307
			c1.177,0.409,2.253,0.871,3.43,1.331h0.051c0.205,0.051,0.461,0.154,0.666,0.256c1.024,0.41,1.997,0.82,3.021,1.28
			c1.28,0.512,2.56,1.024,3.84,1.639c0.153,0.051,0.307,0.154,0.461,0.205c3.226,1.434,6.4,2.969,9.523,4.607
			c1.792,0.871,3.533,1.793,5.274,2.765c1.946,1.075,3.891,2.151,5.786,3.277c0.103,0.051,0.205,0.103,0.307,0.205
			c2.048,1.178,4.045,2.406,6.042,3.686c0.461,0.307,0.922,0.614,1.434,0.922c1.638,1.024,3.225,2.15,4.813,3.225
			c0.051,0.051,0.154,0.103,0.205,0.154c1.229,0.819,2.406,1.69,3.635,2.611c1.638,1.178,3.225,2.304,4.813,3.533
			c1.536,1.229,3.124,2.458,4.659,3.687c1.433,1.178,2.867,2.355,4.25,3.584c0.461,0.358,0.87,0.716,1.331,1.126
			c0.051,0.051,0.051,0.051,0.102,0.102c1.229,1.075,2.458,2.15,3.635,3.276c0.461,0.41,0.922,0.819,1.382,1.28
			c1.383,1.28,2.765,2.611,4.096,3.943c3.174,3.072,6.195,6.246,9.113,9.523c1.178,1.331,2.304,2.663,3.482,3.994
			C401.088,187.084,401.395,187.443,401.651,187.75z"/>
	</g>
</g>
</svg>
