<?xml version="1.0" encoding="iso-8859-1"?>
<!-- Generator: Adobe Illustrator 18.0.0, SVG Export Plug-In . SVG Version: 6.00 Build 0)  -->
<!DOCTYPE svg PUBLIC "-//W3C//DTD SVG 1.1//EN" "http://www.w3.org/Graphics/SVG/1.1/DTD/svg11.dtd">
<svg version="1.1" id="_x33_" xmlns="http://www.w3.org/2000/svg" xmlns:xlink="http://www.w3.org/1999/xlink" x="0px" y="0px"
	 viewBox="0 0 512 512" style="enable-background:new 0 0 512 512;" xml:space="preserve">
<g>
	<rect style="fill:#5A7281;" width="512" height="512"/>
	<polygon style="opacity:0.1;fill:#231815;" points="512,329.675 512,512 214.065,512 109.67,407.605 104.397,402.33 
		94.003,391.935 104.397,381.54 334.13,151.81 407.605,225.28 	"/>
	<g>
		<path style="fill:#F7E284;" d="M401.06,354.2c-19.775-12.19-28.825-50.645-28.825-63.46v-53.875
			c0-58.685-42.095-107.505-97.73-117.99c1.475-1.91,2.73-4.005,3.685-6.275c1.44-3.385,2.23-7.13,2.23-11.01
			c0.005-5.83-1.785-11.32-4.835-15.82c-3.05-4.515-7.35-8.085-12.435-10.24c-3.39-1.44-7.135-2.23-11.015-2.23
			c-5.825,0-11.315,1.79-15.82,4.84c-4.51,3.045-8.085,7.35-10.24,12.435c-1.435,3.39-2.225,7.13-2.225,11.015
			c-0.005,5.82,1.79,11.315,4.835,15.82c0.34,0.5,0.7,0.99,1.075,1.465c-55.63,10.49-97.725,59.31-97.725,117.99v53.875
			c0,12.815-9.05,51.27-28.828,63.46c-62.287,38.39,44.842,76.2,148.927,76.2S463.35,392.59,401.06,354.2z M243.335,95.665
			c1.15-1.7,2.78-3.055,4.675-3.85c1.265-0.535,2.64-0.835,4.125-0.835c2.225,0.005,4.225,0.665,5.925,1.81
			c1.7,1.145,3.055,2.78,3.855,4.675c0.53,1.26,0.825,2.635,0.825,4.125c-0.005,2.225-0.66,4.22-1.805,5.92
			c-1.145,1.7-2.78,3.055-4.67,3.855c-1.265,0.53-2.64,0.83-4.13,0.83c-2.225-0.005-4.22-0.66-5.925-1.805
			c-1.695-1.15-3.05-2.785-3.85-4.68c-0.53-1.26-0.83-2.63-0.83-4.12C241.535,99.36,242.19,97.365,243.335,95.665z"/>
		<path style="fill:#F7CE70;" d="M417.04,383.145c0,26.095-74.315,47.255-165.995,47.255c-91.675,0-165.987-21.16-165.987-47.255
			c0-26.095,74.313-47.255,165.987-47.255C342.725,335.89,417.04,357.05,417.04,383.145z"/>
		<path style="fill:#F8D17A;" d="M262.045,97.77c3.05,7.805-3.385,13.85-9.91,14.205V430.4c16.75,0,33.51-0.95,50.15-2.82
			c18.245-2.05,36.415-5.165,54.19-9.815c14.135-3.715,28.31-8.31,41.18-15.325c8-4.35,17.265-10.31,20.72-19.21
			c3.18-8.195-1.235-15.925-7.19-21.49c-4.835-4.52-10.915-7.34-15.675-11.89c-5.67-5.425-9.795-12.34-13.055-19.41
			c-5.66-12.235-10.225-26.62-10.225-40.205v-50.88c0-26.685-7.59-52.445-23.595-73.995c-17.875-24.085-44.62-40.95-74.115-46.5
			c14.08-18.25,0.645-45.57-22.385-45.56v17.9c3.805-0.205,7.65,1.53,9.65,5.97l0.06,0.14c0.025,0.05,0.05,0.1,0.07,0.16
			c0.025,0.07,0.065,0.13,0.085,0.2C262.03,97.735,262.045,97.77,262.045,97.77z"/>
		<g>
			<path style="fill:#C39458;" d="M221.055,350.61c-69.618,3.255-121.993,17.37-121.993,34.31c0,19.29,67.983,34.93,151.983,35.015
				v-70.03C240.785,349.915,230.75,350.15,221.055,350.61z"/>
			<path style="fill:#B38551;" d="M285.665,350.77c-10.92-0.575-22.26-0.87-33.92-0.87c-0.23,0-0.465,0.005-0.7,0.005v70.03
				c0.235,0,0.47,0.005,0.7,0.005c84.33,0,152.69-15.675,152.69-35.02C404.435,368.25,353.67,354.3,285.665,350.77z"/>
		</g>
		<path style="fill:#F7D66A;" d="M290.76,369.61c0,20.685-16.77,37.455-37.445,37.455c-20.675,0-37.44-16.77-37.44-37.455
			c0-6.935,1.89-13.435,5.18-19c9.92-0.47,20.185-0.71,30.69-0.71c11.66,0,23,0.295,33.92,0.87
			C288.91,356.3,290.76,362.745,290.76,369.61z"/>
		<circle style="fill:#FFFFFF;" cx="239.84" cy="386.32" r="7.705"/>
		<g>
			<path style="fill:#FFFFFF;" d="M164.632,225.775c0.005-17.44,5.542-33.555,14.978-46.77c9.43-13.205,22.755-23.475,38.245-29.095
				c3.67-1.335,5.565-5.385,4.235-9.06c-1.335-3.67-5.39-5.56-9.06-4.225c-18.235,6.615-33.855,18.655-44.933,34.165
				c-11.077,15.5-17.615,34.52-17.61,54.985c0,3.9,3.167,7.065,7.07,7.065C161.465,232.84,164.632,229.675,164.632,225.775
				L164.632,225.775z"/>
		</g>
	</g>
</g>
</svg>
