<?xml version="1.0" encoding="iso-8859-1"?>
<!-- Generator: Adobe Illustrator 18.0.0, SVG Export Plug-In . SVG Version: 6.00 Build 0)  -->
<!-- ピアノアイコン -->
<!DOCTYPE svg PUBLIC "-//W3C//DTD SVG 1.1//EN" "http://www.w3.org/Graphics/SVG/1.1/DTD/svg11.dtd">
<svg version="1.1" id="_x32_" xmlns="http://www.w3.org/2000/svg" xmlns:xlink="http://www.w3.org/1999/xlink" x="0px" y="0px"
	 viewBox="0 0 512 512" style="enable-background:new 0 0 512 512;" xml:space="preserve">
<g>
	<rect style="fill:#F6B598;" width="512" height="512"/>
	<polygon style="opacity:0.1;fill:#040000;" points="512,213.094 512,512 208.23,512 98.099,401.869 92.467,396.237 92.467,152.73 
		114.79,130.406 128.819,116.326 146.688,116.326 146.688,110.131 201.625,110.131 201.625,116.326 228.557,116.326 
		228.557,110.131 283.443,110.131 283.443,116.326 310.374,116.326 310.374,110.131 365.312,110.131 365.312,116.326 
		415.232,116.326 	"/>
	<g>
		<g>
			<g>
				<rect x="92.467" y="130.407" style="fill:#FEF6EA;" width="327.065" height="271.462"/>
				<g>
					<g>
						<g>
							<path style="fill:#26292A;" d="M177.96,271.043v128.565c0,1.246-1.02,2.266-2.266,2.266h-6.572
								c-1.246,0-2.266-1.02-2.266-2.266V271.043H177.96z"/>
							<polygon style="opacity:0.1;fill:#141616;" points="187.369,303.579 187.369,303.67 177.96,303.67 177.96,316.723 
								166.856,316.723 166.856,303.67 160.933,303.67 160.933,303.579 							"/>
						</g>
						<g>
							<path style="fill:#26292A;" d="M201.608,124.206v169.598c0,1.677-0.378,3.263-1.042,4.65
								c-0.08,0.163-0.161,0.326-0.249,0.485c-0.036,0.077-0.08,0.15-0.125,0.222c-0.064,0.113-0.129,0.222-0.201,0.331
								c-0.02,0.041-0.048,0.077-0.072,0.118c-0.048,0.073-0.097,0.15-0.149,0.222c-0.141,0.208-0.29,0.408-0.451,0.603
								c-0.085,0.109-0.173,0.213-0.266,0.317c-0.016,0.018-0.036,0.041-0.052,0.059c-0.089,0.1-0.181,0.195-0.274,0.29
								c-0.418,0.431-0.877,0.816-1.364,1.147c-0.113,0.082-0.229,0.154-0.35,0.227c-0.101,0.063-0.205,0.127-0.31,0.181
								c-0.278,0.159-0.559,0.295-0.853,0.412c-0.129,0.054-0.257,0.104-0.39,0.154c-0.258,0.091-0.523,0.168-0.788,0.231
								c-0.06,0.018-0.125,0.032-0.185,0.041c-0.097,0.023-0.193,0.041-0.294,0.059c-0.008,0.005-0.016,0.005-0.024,0.005
								c-0.129,0.023-0.262,0.041-0.394,0.059c-0.028,0.004-0.056,0.004-0.084,0.009c-0.129,0.014-0.262,0.023-0.394,0.032
								c-0.145,0.009-0.298,0.014-0.446,0.014h-37.398c-0.149,0-0.302-0.005-0.447-0.014c-0.133-0.009-0.266-0.018-0.394-0.032
								c-0.028-0.005-0.056-0.005-0.085-0.009c-0.133-0.018-0.266-0.036-0.394-0.059c-0.008,0-0.016,0-0.024-0.005
								c-0.101-0.018-0.197-0.036-0.294-0.059c-0.06-0.009-0.125-0.023-0.185-0.041c-0.266-0.063-0.531-0.141-0.788-0.231
								c-0.133-0.05-0.262-0.1-0.39-0.154c-0.294-0.118-0.575-0.254-0.853-0.412c-0.105-0.054-0.209-0.118-0.31-0.181
								c-0.121-0.073-0.237-0.145-0.35-0.227c-0.487-0.331-0.946-0.716-1.364-1.147c-0.092-0.095-0.185-0.19-0.273-0.29
								c-0.016-0.018-0.036-0.041-0.048-0.059c-0.097-0.104-0.185-0.208-0.27-0.317c-0.161-0.195-0.31-0.394-0.451-0.603
								c-0.052-0.073-0.101-0.15-0.149-0.222c-0.024-0.041-0.052-0.077-0.072-0.118c-0.072-0.109-0.137-0.217-0.201-0.331
								c-0.044-0.073-0.089-0.145-0.125-0.222c-0.089-0.159-0.169-0.322-0.249-0.485c-0.664-1.387-1.042-2.973-1.042-4.65V124.206
								H201.608z"/>
							<path style="fill:#303233;" d="M200.566,298.453c-0.08,0.163-0.161,0.326-0.249,0.485c-0.036,0.077-0.08,0.15-0.125,0.222
								c-0.064,0.113-0.129,0.222-0.201,0.331c-0.02,0.041-0.048,0.077-0.072,0.118c-0.048,0.073-0.097,0.15-0.149,0.222
								c-0.141,0.208-0.29,0.408-0.451,0.603c-0.085,0.109-0.173,0.213-0.266,0.317c-0.016,0.018-0.036,0.041-0.052,0.059
								c-0.089,0.1-0.181,0.195-0.274,0.29c-0.418,0.431-0.877,0.816-1.364,1.147c-0.113,0.082-0.229,0.154-0.35,0.227
								c-0.101,0.063-0.205,0.127-0.31,0.181c-0.278,0.159-0.559,0.295-0.853,0.412c-0.129,0.054-0.257,0.104-0.39,0.154
								c-0.258,0.091-0.523,0.168-0.788,0.231c-0.06,0.018-0.125,0.032-0.185,0.041c-0.097,0.023-0.193,0.041-0.294,0.059
								c-0.008,0.005-0.016,0.005-0.024,0.005c-0.129,0.023-0.262,0.041-0.394,0.059c-0.028,0.004-0.056,0.004-0.084,0.009
								c-0.129,0.014-0.262,0.023-0.394,0.032c-0.145,0.009-0.298,0.014-0.446,0.014h-37.398c-0.149,0-0.302-0.005-0.447-0.014
								c-0.133-0.009-0.266-0.018-0.394-0.032c-0.028-0.005-0.056-0.005-0.085-0.009c-0.133-0.018-0.266-0.036-0.394-0.059
								c-0.008,0-0.016,0-0.024-0.005c-0.101-0.018-0.197-0.036-0.294-0.059c-0.06-0.009-0.125-0.023-0.185-0.041
								c-0.266-0.063-0.531-0.141-0.788-0.231c-0.133-0.05-0.262-0.1-0.39-0.154c-0.294-0.118-0.575-0.254-0.853-0.412
								c-0.105-0.054-0.209-0.118-0.31-0.181c-0.121-0.073-0.237-0.145-0.35-0.227c-0.487-0.331-0.946-0.716-1.364-1.147
								c-0.092-0.095-0.185-0.19-0.273-0.29c-0.016-0.018-0.036-0.041-0.048-0.059c-0.097-0.104-0.185-0.208-0.27-0.317
								c-0.161-0.195-0.31-0.394-0.451-0.603c-0.052-0.073-0.101-0.15-0.149-0.222c-0.024-0.041-0.052-0.077-0.072-0.118
								c-0.072-0.109-0.137-0.217-0.201-0.331c-0.044-0.073-0.089-0.145-0.125-0.222c-0.089-0.159-0.169-0.322-0.249-0.485
								l6.944-34.848c0-5.425,3.939-9.867,8.758-9.867h21.427c4.82,0,8.758,4.441,8.758,9.867L200.566,298.453z"/>
							<g>
								<rect x="157.29" y="125.567" style="fill:#303233;" width="1.073" height="125.59"/>
								<rect x="189.475" y="125.567" style="fill:#303233;" width="1.073" height="125.59"/>
							</g>
						</g>
					</g>
					<g>
						<g>
							<path style="fill:#26292A;" d="M259.809,271.043v128.565c0,1.246-1.02,2.266-2.266,2.266h-6.572
								c-1.246,0-2.266-1.02-2.266-2.266V271.043H259.809z"/>
							<polygon style="opacity:0.1;fill:#141616;" points="269.218,303.579 269.218,303.67 259.809,303.67 259.809,316.723 
								248.705,316.723 248.705,303.67 242.782,303.67 242.782,303.579 							"/>
						</g>
						<g>
							<path style="fill:#26292A;" d="M283.457,124.206v169.598c0,1.677-0.378,3.263-1.042,4.65
								c-0.081,0.163-0.161,0.326-0.25,0.485c-0.036,0.077-0.081,0.15-0.125,0.222c-0.064,0.113-0.129,0.222-0.201,0.331
								c-0.02,0.041-0.048,0.077-0.072,0.118c-0.048,0.073-0.097,0.15-0.149,0.222c-0.141,0.208-0.29,0.408-0.451,0.603
								c-0.085,0.109-0.173,0.213-0.266,0.317c-0.016,0.018-0.036,0.041-0.052,0.059c-0.089,0.1-0.181,0.195-0.274,0.29
								c-0.418,0.431-0.877,0.816-1.364,1.147c-0.113,0.082-0.229,0.154-0.35,0.227c-0.101,0.063-0.205,0.127-0.31,0.181
								c-0.278,0.159-0.559,0.295-0.853,0.412c-0.129,0.054-0.258,0.104-0.39,0.154c-0.257,0.091-0.523,0.168-0.788,0.231
								c-0.06,0.018-0.125,0.032-0.185,0.041c-0.097,0.023-0.193,0.041-0.294,0.059c-0.008,0.005-0.016,0.005-0.024,0.005
								c-0.129,0.023-0.262,0.041-0.394,0.059c-0.028,0.004-0.056,0.004-0.085,0.009c-0.129,0.014-0.262,0.023-0.394,0.032
								c-0.145,0.009-0.298,0.014-0.447,0.014h-37.398c-0.149,0-0.302-0.005-0.447-0.014c-0.133-0.009-0.266-0.018-0.394-0.032
								c-0.028-0.005-0.056-0.005-0.085-0.009c-0.133-0.018-0.266-0.036-0.394-0.059c-0.008,0-0.016,0-0.024-0.005
								c-0.101-0.018-0.197-0.036-0.294-0.059c-0.06-0.009-0.125-0.023-0.185-0.041c-0.266-0.063-0.531-0.141-0.788-0.231
								c-0.133-0.05-0.262-0.1-0.39-0.154c-0.294-0.118-0.575-0.254-0.853-0.412c-0.105-0.054-0.209-0.118-0.31-0.181
								c-0.121-0.073-0.237-0.145-0.35-0.227c-0.487-0.331-0.945-0.716-1.364-1.147c-0.093-0.095-0.185-0.19-0.274-0.29
								c-0.016-0.018-0.036-0.041-0.048-0.059c-0.096-0.104-0.185-0.208-0.27-0.317c-0.161-0.195-0.31-0.394-0.451-0.603
								c-0.052-0.073-0.101-0.15-0.149-0.222c-0.024-0.041-0.052-0.077-0.072-0.118c-0.072-0.109-0.137-0.217-0.201-0.331
								c-0.044-0.073-0.089-0.145-0.125-0.222c-0.089-0.159-0.169-0.322-0.249-0.485c-0.664-1.387-1.042-2.973-1.042-4.65V124.206
								H283.457z"/>
							<path style="fill:#303233;" d="M282.415,298.453c-0.081,0.163-0.161,0.326-0.25,0.485c-0.036,0.077-0.081,0.15-0.125,0.222
								c-0.064,0.113-0.129,0.222-0.201,0.331c-0.02,0.041-0.048,0.077-0.072,0.118c-0.048,0.073-0.097,0.15-0.149,0.222
								c-0.141,0.208-0.29,0.408-0.451,0.603c-0.085,0.109-0.173,0.213-0.266,0.317c-0.016,0.018-0.036,0.041-0.052,0.059
								c-0.089,0.1-0.181,0.195-0.274,0.29c-0.418,0.431-0.877,0.816-1.364,1.147c-0.113,0.082-0.229,0.154-0.35,0.227
								c-0.101,0.063-0.205,0.127-0.31,0.181c-0.278,0.159-0.559,0.295-0.853,0.412c-0.129,0.054-0.258,0.104-0.39,0.154
								c-0.257,0.091-0.523,0.168-0.788,0.231c-0.06,0.018-0.125,0.032-0.185,0.041c-0.097,0.023-0.193,0.041-0.294,0.059
								c-0.008,0.005-0.016,0.005-0.024,0.005c-0.129,0.023-0.262,0.041-0.394,0.059c-0.028,0.004-0.056,0.004-0.085,0.009
								c-0.129,0.014-0.262,0.023-0.394,0.032c-0.145,0.009-0.298,0.014-0.447,0.014h-37.398c-0.149,0-0.302-0.005-0.447-0.014
								c-0.133-0.009-0.266-0.018-0.394-0.032c-0.028-0.005-0.056-0.005-0.085-0.009c-0.133-0.018-0.266-0.036-0.394-0.059
								c-0.008,0-0.016,0-0.024-0.005c-0.101-0.018-0.197-0.036-0.294-0.059c-0.06-0.009-0.125-0.023-0.185-0.041
								c-0.266-0.063-0.531-0.141-0.788-0.231c-0.133-0.05-0.262-0.1-0.39-0.154c-0.294-0.118-0.575-0.254-0.853-0.412
								c-0.105-0.054-0.209-0.118-0.31-0.181c-0.121-0.073-0.237-0.145-0.35-0.227c-0.487-0.331-0.945-0.716-1.364-1.147
								c-0.093-0.095-0.185-0.19-0.274-0.29c-0.016-0.018-0.036-0.041-0.048-0.059c-0.096-0.104-0.185-0.208-0.27-0.317
								c-0.161-0.195-0.31-0.394-0.451-0.603c-0.052-0.073-0.101-0.15-0.149-0.222c-0.024-0.041-0.052-0.077-0.072-0.118
								c-0.072-0.109-0.137-0.217-0.201-0.331c-0.044-0.073-0.089-0.145-0.125-0.222c-0.089-0.159-0.169-0.322-0.249-0.485
								l6.944-34.848c0-5.425,3.939-9.867,8.758-9.867h21.427c4.82,0,8.758,4.441,8.758,9.867L282.415,298.453z"/>
							<g>
								<rect x="239.139" y="125.567" style="fill:#303233;" width="1.073" height="125.59"/>
								<rect x="271.323" y="125.567" style="fill:#303233;" width="1.073" height="125.59"/>
							</g>
						</g>
					</g>
					<g>
						<g>
							<path style="fill:#26292A;" d="M341.658,271.043v128.565c0,1.246-1.02,2.266-2.266,2.266h-6.572
								c-1.246,0-2.266-1.02-2.266-2.266V271.043H341.658z"/>
							<polygon style="opacity:0.1;fill:#141616;" points="351.067,303.579 351.067,303.67 341.658,303.67 341.658,316.723 
								330.554,316.723 330.554,303.67 324.631,303.67 324.631,303.579 							"/>
						</g>
						<g>
							<path style="fill:#26292A;" d="M365.306,124.206v169.598c0,1.677-0.378,3.263-1.042,4.65
								c-0.08,0.163-0.161,0.326-0.249,0.485c-0.036,0.077-0.081,0.15-0.125,0.222c-0.064,0.113-0.129,0.222-0.201,0.331
								c-0.02,0.041-0.048,0.077-0.072,0.118c-0.048,0.073-0.097,0.15-0.149,0.222c-0.141,0.208-0.29,0.408-0.451,0.603
								c-0.085,0.109-0.173,0.213-0.266,0.317c-0.016,0.018-0.036,0.041-0.052,0.059c-0.089,0.1-0.181,0.195-0.274,0.29
								c-0.418,0.431-0.877,0.816-1.364,1.147c-0.113,0.082-0.229,0.154-0.35,0.227c-0.101,0.063-0.205,0.127-0.31,0.181
								c-0.278,0.159-0.559,0.295-0.853,0.412c-0.129,0.054-0.258,0.104-0.39,0.154c-0.258,0.091-0.523,0.168-0.789,0.231
								c-0.06,0.018-0.125,0.032-0.185,0.041c-0.097,0.023-0.193,0.041-0.294,0.059c-0.008,0.005-0.016,0.005-0.024,0.005
								c-0.129,0.023-0.262,0.041-0.394,0.059c-0.028,0.004-0.056,0.004-0.085,0.009c-0.129,0.014-0.261,0.023-0.394,0.032
								c-0.145,0.009-0.298,0.014-0.447,0.014H319.15c-0.149,0-0.302-0.005-0.447-0.014c-0.133-0.009-0.266-0.018-0.394-0.032
								c-0.028-0.005-0.056-0.005-0.084-0.009c-0.133-0.018-0.266-0.036-0.394-0.059c-0.008,0-0.016,0-0.024-0.005
								c-0.101-0.018-0.197-0.036-0.294-0.059c-0.06-0.009-0.125-0.023-0.185-0.041c-0.266-0.063-0.531-0.141-0.788-0.231
								c-0.133-0.05-0.262-0.1-0.39-0.154c-0.294-0.118-0.575-0.254-0.853-0.412c-0.105-0.054-0.209-0.118-0.31-0.181
								c-0.121-0.073-0.237-0.145-0.35-0.227c-0.487-0.331-0.946-0.716-1.364-1.147c-0.092-0.095-0.185-0.19-0.273-0.29
								c-0.016-0.018-0.036-0.041-0.048-0.059c-0.097-0.104-0.185-0.208-0.27-0.317c-0.161-0.195-0.31-0.394-0.45-0.603
								c-0.052-0.073-0.101-0.15-0.149-0.222c-0.024-0.041-0.052-0.077-0.072-0.118c-0.073-0.109-0.137-0.217-0.201-0.331
								c-0.044-0.073-0.088-0.145-0.125-0.222c-0.089-0.159-0.169-0.322-0.25-0.485c-0.664-1.387-1.042-2.973-1.042-4.65V124.206
								H365.306z"/>
							<path style="fill:#303233;" d="M364.264,298.453c-0.08,0.163-0.161,0.326-0.249,0.485c-0.036,0.077-0.081,0.15-0.125,0.222
								c-0.064,0.113-0.129,0.222-0.201,0.331c-0.02,0.041-0.048,0.077-0.072,0.118c-0.048,0.073-0.097,0.15-0.149,0.222
								c-0.141,0.208-0.29,0.408-0.451,0.603c-0.085,0.109-0.173,0.213-0.266,0.317c-0.016,0.018-0.036,0.041-0.052,0.059
								c-0.089,0.1-0.181,0.195-0.274,0.29c-0.418,0.431-0.877,0.816-1.364,1.147c-0.113,0.082-0.229,0.154-0.35,0.227
								c-0.101,0.063-0.205,0.127-0.31,0.181c-0.278,0.159-0.559,0.295-0.853,0.412c-0.129,0.054-0.258,0.104-0.39,0.154
								c-0.258,0.091-0.523,0.168-0.789,0.231c-0.06,0.018-0.125,0.032-0.185,0.041c-0.097,0.023-0.193,0.041-0.294,0.059
								c-0.008,0.005-0.016,0.005-0.024,0.005c-0.129,0.023-0.262,0.041-0.394,0.059c-0.028,0.004-0.056,0.004-0.085,0.009
								c-0.129,0.014-0.261,0.023-0.394,0.032c-0.145,0.009-0.298,0.014-0.447,0.014H319.15c-0.149,0-0.302-0.005-0.447-0.014
								c-0.133-0.009-0.266-0.018-0.394-0.032c-0.028-0.005-0.056-0.005-0.084-0.009c-0.133-0.018-0.266-0.036-0.394-0.059
								c-0.008,0-0.016,0-0.024-0.005c-0.101-0.018-0.197-0.036-0.294-0.059c-0.06-0.009-0.125-0.023-0.185-0.041
								c-0.266-0.063-0.531-0.141-0.788-0.231c-0.133-0.05-0.262-0.1-0.39-0.154c-0.294-0.118-0.575-0.254-0.853-0.412
								c-0.105-0.054-0.209-0.118-0.31-0.181c-0.121-0.073-0.237-0.145-0.35-0.227c-0.487-0.331-0.946-0.716-1.364-1.147
								c-0.092-0.095-0.185-0.19-0.273-0.29c-0.016-0.018-0.036-0.041-0.048-0.059c-0.097-0.104-0.185-0.208-0.27-0.317
								c-0.161-0.195-0.31-0.394-0.45-0.603c-0.052-0.073-0.101-0.15-0.149-0.222c-0.024-0.041-0.052-0.077-0.072-0.118
								c-0.073-0.109-0.137-0.217-0.201-0.331c-0.044-0.073-0.088-0.145-0.125-0.222c-0.089-0.159-0.169-0.322-0.25-0.485
								l6.944-34.848c0-5.425,3.939-9.867,8.758-9.867h21.427c4.82,0,8.758,4.441,8.758,9.867L364.264,298.453z"/>
							<g>
								<rect x="320.988" y="125.567" style="fill:#303233;" width="1.073" height="125.59"/>
								<rect x="353.172" y="125.567" style="fill:#303233;" width="1.073" height="125.59"/>
							</g>
						</g>
					</g>
				</g>
			</g>
			<g>
				<rect x="92.467" y="116.327" style="fill:#FFFDF7;" width="327.065" height="261.324"/>
				<g>
					<g>
						<g>
							<rect x="166.856" y="256.963" style="fill:#524C46;" width="11.104" height="120.671"/>
							<polygon style="opacity:0.1;fill:#141616;" points="187.369,289.499 187.369,289.59 177.96,289.59 177.96,302.642 
								166.856,302.642 166.856,289.59 160.933,289.59 160.933,289.499 							"/>
						</g>
						<g>
							<path style="fill:#524C46;" d="M201.625,110.131v169.574c0,1.69-0.41,3.277-1.075,4.659
								c-0.051,0.154-0.153,0.358-0.256,0.512c0,0.051-0.051,0.153-0.102,0.205c-0.051,0.103-0.154,0.205-0.205,0.307
								c0,0.051-0.051,0.102-0.051,0.154c-0.051,0.051-0.102,0.154-0.153,0.205c-0.154,0.205-0.307,0.41-0.461,0.614
								c-0.102,0.103-0.153,0.205-0.256,0.307c-0.051,0-0.051,0.051-0.051,0.051c-0.102,0.103-0.205,0.205-0.307,0.307
								c-0.102,0.102-0.205,0.205-0.358,0.307c-0.307,0.307-0.614,0.614-0.973,0.819c-0.102,0.102-0.256,0.153-0.358,0.256
								c-0.102,0.051-0.205,0.103-0.307,0.153c-0.307,0.154-0.563,0.307-0.87,0.41c-0.102,0.051-0.256,0.103-0.358,0.154
								c-0.256,0.102-0.563,0.205-0.819,0.256c-0.051,0-0.103,0-0.154,0.051c-0.102,0-0.205,0-0.307,0.051c0,0,0,0-0.051,0
								c-0.102,0-0.256,0.051-0.358,0.051c-0.051,0-0.051,0-0.103,0c-0.102,0-0.256,0.051-0.41,0.051h-38.298
								c-0.102,0-0.256-0.051-0.358-0.051c-0.051,0-0.051,0-0.102,0c-0.102,0-0.256-0.051-0.409-0.051
								c-0.102-0.051-0.205-0.051-0.307-0.051c-0.051-0.051-0.102-0.051-0.153-0.051c-0.307-0.051-0.563-0.154-0.819-0.256
								c-0.102-0.051-0.256-0.103-0.358-0.154c-0.307-0.103-0.614-0.256-0.871-0.41c-0.102-0.051-0.205-0.102-0.307-0.153
								c-0.153-0.102-0.256-0.154-0.358-0.256c-0.358-0.205-0.717-0.512-1.024-0.768c-0.102-0.153-0.256-0.256-0.359-0.358
								c-0.051-0.103-0.154-0.205-0.256-0.307l-0.051-0.051c-0.103-0.102-0.205-0.205-0.256-0.307
								c-0.154-0.205-0.307-0.409-0.461-0.614c-0.051-0.051-0.102-0.153-0.154-0.205c0-0.051-0.051-0.103-0.051-0.154
								c-0.102-0.102-0.154-0.205-0.205-0.307c-0.051-0.051-0.102-0.153-0.153-0.205c-0.051-0.154-0.154-0.358-0.256-0.512
								c-0.666-1.382-1.024-2.969-1.024-4.659V110.131H201.625z"/>
							<path style="fill:#59564F;" d="M200.566,284.373c-0.08,0.163-0.161,0.326-0.249,0.485c-0.036,0.077-0.08,0.15-0.125,0.222
								c-0.064,0.113-0.129,0.222-0.201,0.331c-0.02,0.041-0.048,0.077-0.072,0.118c-0.048,0.072-0.097,0.15-0.149,0.222
								c-0.141,0.208-0.29,0.408-0.451,0.603c-0.085,0.109-0.173,0.213-0.266,0.317c-0.016,0.018-0.036,0.041-0.052,0.059
								c-0.089,0.1-0.181,0.195-0.274,0.29c-0.418,0.431-0.877,0.816-1.364,1.147c-0.113,0.082-0.229,0.154-0.35,0.227
								c-0.101,0.063-0.205,0.127-0.31,0.181c-0.278,0.159-0.559,0.295-0.853,0.412c-0.129,0.054-0.257,0.104-0.39,0.154
								c-0.258,0.091-0.523,0.168-0.788,0.231c-0.06,0.018-0.125,0.032-0.185,0.041c-0.097,0.023-0.193,0.041-0.294,0.059
								c-0.008,0.005-0.016,0.005-0.024,0.005c-0.129,0.023-0.262,0.041-0.394,0.059c-0.028,0.005-0.056,0.005-0.084,0.009
								c-0.129,0.014-0.262,0.023-0.394,0.032c-0.145,0.009-0.298,0.014-0.446,0.014h-37.398c-0.149,0-0.302-0.005-0.447-0.014
								c-0.133-0.009-0.266-0.018-0.394-0.032c-0.028-0.005-0.056-0.005-0.085-0.009c-0.133-0.018-0.266-0.036-0.394-0.059
								c-0.008,0-0.016,0-0.024-0.005c-0.101-0.018-0.197-0.036-0.294-0.059c-0.06-0.009-0.125-0.023-0.185-0.041
								c-0.266-0.063-0.531-0.141-0.788-0.231c-0.133-0.05-0.262-0.1-0.39-0.154c-0.294-0.118-0.575-0.254-0.853-0.412
								c-0.105-0.054-0.209-0.118-0.31-0.181c-0.121-0.073-0.237-0.145-0.35-0.227c-0.487-0.331-0.946-0.716-1.364-1.147
								c-0.092-0.095-0.185-0.19-0.273-0.29c-0.016-0.018-0.036-0.041-0.048-0.059c-0.097-0.104-0.185-0.208-0.27-0.317
								c-0.161-0.195-0.31-0.394-0.451-0.603c-0.052-0.072-0.101-0.15-0.149-0.222c-0.024-0.041-0.052-0.077-0.072-0.118
								c-0.072-0.109-0.137-0.218-0.201-0.331c-0.044-0.073-0.089-0.145-0.125-0.222c-0.089-0.159-0.169-0.322-0.249-0.485
								l6.944-34.848c0-5.425,3.939-9.867,8.758-9.867h21.427c4.82,0,8.758,4.441,8.758,9.867L200.566,284.373z"/>
							<g>
								<rect x="157.29" y="111.487" style="fill:#59564F;" width="1.073" height="125.59"/>
								<rect x="189.475" y="111.487" style="fill:#59564F;" width="1.073" height="125.59"/>
							</g>
						</g>
					</g>
					<g>
						<g>
							<rect x="248.705" y="256.963" style="fill:#524C46;" width="11.104" height="120.671"/>
							<polygon style="opacity:0.1;fill:#141616;" points="269.218,289.499 269.218,289.59 259.809,289.59 259.809,302.642 
								248.705,302.642 248.705,289.59 242.782,289.59 242.782,289.499 							"/>
						</g>
						<g>
							<path style="fill:#524C46;" d="M283.443,110.131v169.574c0,1.69-0.358,3.277-1.024,4.659
								c-0.103,0.154-0.154,0.358-0.256,0.512c-0.051,0.051-0.102,0.153-0.102,0.205c-0.103,0.103-0.154,0.205-0.205,0.307
								c-0.051,0.051-0.051,0.102-0.102,0.154c-0.051,0.051-0.103,0.154-0.154,0.205c-0.103,0.205-0.256,0.41-0.41,0.614
								c-0.102,0.103-0.205,0.205-0.307,0.307c0,0,0,0.051-0.051,0.051c-0.051,0.103-0.154,0.205-0.256,0.307
								c-0.102,0.102-0.205,0.205-0.359,0.358c-0.307,0.256-0.665,0.563-1.024,0.768c-0.103,0.102-0.205,0.153-0.307,0.256
								c-0.102,0.051-0.205,0.103-0.358,0.153c-0.256,0.154-0.512,0.307-0.819,0.41c-0.154,0.051-0.256,0.103-0.409,0.154
								c-0.256,0.102-0.512,0.205-0.768,0.256c-0.051,0-0.154,0-0.205,0.051c-0.102,0-0.205,0-0.307,0.051
								c-0.154,0-0.256,0.051-0.41,0.051h-0.051c-0.154,0-0.256,0.051-0.41,0.051h-38.298c-0.154,0-0.256-0.051-0.41-0.051h-0.051
								c-0.154,0-0.256-0.051-0.409-0.051c-0.102-0.051-0.205-0.051-0.307-0.051c-0.051-0.051-0.154-0.051-0.205-0.051
								c-0.256-0.051-0.512-0.154-0.768-0.256c-0.154-0.051-0.256-0.103-0.41-0.154c-0.307-0.103-0.563-0.256-0.819-0.41
								c-0.154-0.051-0.256-0.102-0.358-0.153c-0.103-0.102-0.205-0.154-0.307-0.256c-0.358-0.205-0.717-0.512-1.024-0.768
								c-0.154-0.153-0.256-0.256-0.359-0.358c-0.102-0.103-0.205-0.205-0.256-0.307c-0.051,0-0.051-0.051-0.051-0.051
								c-0.103-0.102-0.205-0.205-0.307-0.307c-0.154-0.205-0.307-0.409-0.41-0.614c-0.051-0.051-0.102-0.153-0.153-0.205
								c-0.051-0.051-0.051-0.103-0.103-0.154c-0.051-0.102-0.102-0.205-0.205-0.307c0-0.051-0.051-0.153-0.102-0.205
								c-0.103-0.154-0.154-0.358-0.256-0.512c-0.205-0.461-0.41-0.922-0.563-1.382c-0.307-1.024-0.461-2.15-0.461-3.277V110.131
								H283.443z"/>
							<path style="fill:#59564F;" d="M282.415,284.373c-0.081,0.163-0.161,0.326-0.25,0.485c-0.036,0.077-0.081,0.15-0.125,0.222
								c-0.064,0.113-0.129,0.222-0.201,0.331c-0.02,0.041-0.048,0.077-0.072,0.118c-0.048,0.072-0.097,0.15-0.149,0.222
								c-0.141,0.208-0.29,0.408-0.451,0.603c-0.085,0.109-0.173,0.213-0.266,0.317c-0.016,0.018-0.036,0.041-0.052,0.059
								c-0.089,0.1-0.181,0.195-0.274,0.29c-0.418,0.431-0.877,0.816-1.364,1.147c-0.113,0.082-0.229,0.154-0.35,0.227
								c-0.101,0.063-0.205,0.127-0.31,0.181c-0.278,0.159-0.559,0.295-0.853,0.412c-0.129,0.054-0.258,0.104-0.39,0.154
								c-0.257,0.091-0.523,0.168-0.788,0.231c-0.06,0.018-0.125,0.032-0.185,0.041c-0.097,0.023-0.193,0.041-0.294,0.059
								c-0.008,0.005-0.016,0.005-0.024,0.005c-0.129,0.023-0.262,0.041-0.394,0.059c-0.028,0.005-0.056,0.005-0.085,0.009
								c-0.129,0.014-0.262,0.023-0.394,0.032c-0.145,0.009-0.298,0.014-0.447,0.014h-37.398c-0.149,0-0.302-0.005-0.447-0.014
								c-0.133-0.009-0.266-0.018-0.394-0.032c-0.028-0.005-0.056-0.005-0.085-0.009c-0.133-0.018-0.266-0.036-0.394-0.059
								c-0.008,0-0.016,0-0.024-0.005c-0.101-0.018-0.197-0.036-0.294-0.059c-0.06-0.009-0.125-0.023-0.185-0.041
								c-0.266-0.063-0.531-0.141-0.788-0.231c-0.133-0.05-0.262-0.1-0.39-0.154c-0.294-0.118-0.575-0.254-0.853-0.412
								c-0.105-0.054-0.209-0.118-0.31-0.181c-0.121-0.073-0.237-0.145-0.35-0.227c-0.487-0.331-0.945-0.716-1.364-1.147
								c-0.093-0.095-0.185-0.19-0.274-0.29c-0.016-0.018-0.036-0.041-0.048-0.059c-0.096-0.104-0.185-0.208-0.27-0.317
								c-0.161-0.195-0.31-0.394-0.451-0.603c-0.052-0.072-0.101-0.15-0.149-0.222c-0.024-0.041-0.052-0.077-0.072-0.118
								c-0.072-0.109-0.137-0.218-0.201-0.331c-0.044-0.073-0.089-0.145-0.125-0.222c-0.089-0.159-0.169-0.322-0.249-0.485
								l6.944-34.848c0-5.425,3.939-9.867,8.758-9.867h21.427c4.82,0,8.758,4.441,8.758,9.867L282.415,284.373z"/>
							<g>
								<rect x="239.139" y="111.487" style="fill:#59564F;" width="1.073" height="125.59"/>
								<rect x="271.323" y="111.487" style="fill:#59564F;" width="1.073" height="125.59"/>
							</g>
						</g>
					</g>
					<g>
						<g>
							<rect x="330.554" y="256.963" style="fill:#524C46;" width="11.104" height="120.671"/>
							<polygon style="opacity:0.1;fill:#141616;" points="351.067,289.499 351.067,289.59 341.658,289.59 341.658,302.642 
								330.554,302.642 330.554,289.59 324.631,289.59 324.631,289.499 							"/>
						</g>
						<g>
							<path style="fill:#524C46;" d="M365.312,110.131v169.574c0,1.69-0.41,3.277-1.024,4.659
								c-0.103,0.154-0.205,0.358-0.256,0.512c-0.051,0.051-0.103,0.153-0.154,0.205c-0.051,0.103-0.103,0.205-0.205,0.307
								c0,0.051-0.051,0.102-0.051,0.154c-0.051,0.051-0.102,0.154-0.154,0.205c-0.153,0.205-0.307,0.41-0.461,0.614
								c-0.051,0.103-0.154,0.205-0.256,0.307l-0.051,0.051c-0.102,0.103-0.205,0.205-0.256,0.307
								c-0.102,0.102-0.205,0.205-0.358,0.307c-0.358,0.307-0.666,0.563-1.024,0.819c-0.103,0.102-0.205,0.153-0.358,0.256
								c-0.103,0.051-0.205,0.103-0.307,0.153c-0.256,0.154-0.563,0.307-0.87,0.41c-0.103,0.051-0.256,0.103-0.358,0.154
								c-0.256,0.102-0.512,0.205-0.819,0.256c-0.051,0-0.102,0-0.153,0.051c-0.103,0-0.205,0-0.307,0.051
								c-0.154,0-0.307,0.051-0.41,0.051c-0.051,0-0.051,0-0.102,0c-0.102,0-0.256,0.051-0.358,0.051H318.72
								c-0.153,0-0.307-0.051-0.41-0.051c-0.051,0-0.051,0-0.102,0c-0.103,0-0.256-0.051-0.358-0.051c-0.051,0-0.051,0-0.051,0
								c-0.103-0.051-0.205-0.051-0.307-0.051c-0.051-0.051-0.103-0.051-0.154-0.051c-0.256-0.051-0.563-0.154-0.819-0.256
								c-0.103-0.051-0.256-0.103-0.358-0.154c-0.307-0.103-0.563-0.256-0.87-0.41c-0.102-0.051-0.205-0.102-0.307-0.153
								c-0.103-0.102-0.256-0.154-0.358-0.256c-0.359-0.205-0.666-0.512-0.973-0.819c-0.154-0.102-0.256-0.205-0.358-0.307
								l-0.307-0.307c0,0,0-0.051-0.051-0.051c-0.102-0.102-0.153-0.205-0.256-0.307c-0.154-0.205-0.307-0.409-0.461-0.614
								c-0.051-0.051-0.102-0.153-0.153-0.205c0-0.051-0.051-0.103-0.051-0.154c-0.051-0.102-0.153-0.205-0.205-0.307
								c-0.051-0.051-0.103-0.153-0.103-0.205c-0.102-0.154-0.205-0.358-0.256-0.512c-0.666-1.382-1.075-2.969-1.075-4.659V110.131
								H365.312z"/>
							<path style="fill:#59564F;" d="M364.264,284.373c-0.08,0.163-0.161,0.326-0.249,0.485c-0.036,0.077-0.081,0.15-0.125,0.222
								c-0.064,0.113-0.129,0.222-0.201,0.331c-0.02,0.041-0.048,0.077-0.072,0.118c-0.048,0.072-0.097,0.15-0.149,0.222
								c-0.141,0.208-0.29,0.408-0.451,0.603c-0.085,0.109-0.173,0.213-0.266,0.317c-0.016,0.018-0.036,0.041-0.052,0.059
								c-0.089,0.1-0.181,0.195-0.274,0.29c-0.418,0.431-0.877,0.816-1.364,1.147c-0.113,0.082-0.229,0.154-0.35,0.227
								c-0.101,0.063-0.205,0.127-0.31,0.181c-0.278,0.159-0.559,0.295-0.853,0.412c-0.129,0.054-0.258,0.104-0.39,0.154
								c-0.258,0.091-0.523,0.168-0.789,0.231c-0.06,0.018-0.125,0.032-0.185,0.041c-0.097,0.023-0.193,0.041-0.294,0.059
								c-0.008,0.005-0.016,0.005-0.024,0.005c-0.129,0.023-0.262,0.041-0.394,0.059c-0.028,0.005-0.056,0.005-0.085,0.009
								c-0.129,0.014-0.261,0.023-0.394,0.032c-0.145,0.009-0.298,0.014-0.447,0.014H319.15c-0.149,0-0.302-0.005-0.447-0.014
								c-0.133-0.009-0.266-0.018-0.394-0.032c-0.028-0.005-0.056-0.005-0.084-0.009c-0.133-0.018-0.266-0.036-0.394-0.059
								c-0.008,0-0.016,0-0.024-0.005c-0.101-0.018-0.197-0.036-0.294-0.059c-0.06-0.009-0.125-0.023-0.185-0.041
								c-0.266-0.063-0.531-0.141-0.788-0.231c-0.133-0.05-0.262-0.1-0.39-0.154c-0.294-0.118-0.575-0.254-0.853-0.412
								c-0.105-0.054-0.209-0.118-0.31-0.181c-0.121-0.073-0.237-0.145-0.35-0.227c-0.487-0.331-0.946-0.716-1.364-1.147
								c-0.092-0.095-0.185-0.19-0.273-0.29c-0.016-0.018-0.036-0.041-0.048-0.059c-0.097-0.104-0.185-0.208-0.27-0.317
								c-0.161-0.195-0.31-0.394-0.45-0.603c-0.052-0.072-0.101-0.15-0.149-0.222c-0.024-0.041-0.052-0.077-0.072-0.118
								c-0.073-0.109-0.137-0.218-0.201-0.331c-0.044-0.073-0.088-0.145-0.125-0.222c-0.089-0.159-0.169-0.322-0.25-0.485
								l6.944-34.848c0-5.425,3.939-9.867,8.758-9.867h21.427c4.82,0,8.758,4.441,8.758,9.867L364.264,284.373z"/>
							<g>
								<rect x="320.988" y="111.487" style="fill:#59564F;" width="1.073" height="125.59"/>
								<rect x="353.172" y="111.487" style="fill:#59564F;" width="1.073" height="125.59"/>
							</g>
						</g>
					</g>
				</g>
			</g>
		</g>
		<polygon style="opacity:0.04;fill:#141616;" points="419.533,116.326 419.533,401.869 110.131,401.869 134.349,377.651 
			166.861,345.139 177.971,334.029 229.017,282.982 230.093,281.958 233.574,278.426 320.973,191.027 322.048,189.952 
			353.177,158.822 354.253,157.747 365.312,146.688 395.673,116.326 		"/>
	</g>
</g>
</svg>
