<?xml version="1.0" encoding="iso-8859-1"?>
<!-- Generator: Adobe Illustrator 18.0.0, SVG Export Plug-In . SVG Version: 6.00 Build 0)  -->
<!-- 魚のアイコン -->
<!DOCTYPE svg PUBLIC "-//W3C//DTD SVG 1.1//EN" "http://www.w3.org/Graphics/SVG/1.1/DTD/svg11.dtd">
<svg version="1.1" id="_x31_" xmlns="http://www.w3.org/2000/svg" xmlns:xlink="http://www.w3.org/1999/xlink" x="0px" y="0px"
	 viewBox="0 0 512 512" style="enable-background:new 0 0 512 512;" xml:space="preserve">
<g>
	<rect style="fill:#99D4D9;" width="512" height="512"/>
	<polygon style="opacity:0.1;fill:#231815;" points="512,216.83 512,512 302.745,512 100.353,309.605 112.64,232.96 
		464.845,169.675 	"/>
	<g>
		<g>
			<polygon style="fill:#F9D4D5;" points="188.98,286.655 141.763,335.335 155.327,349.37 212.52,290.41 			"/>
			<polygon style="fill:#F0C0C0;" points="165.685,282.935 129.595,322.75 141.763,335.335 188.98,286.655 			"/>
			<polygon style="fill:#F0C0C0;" points="282.885,301.625 259.59,297.91 210.22,348.825 237.515,348.405 			"/>
			<polygon style="fill:#F9D4D5;" points="236.055,294.16 182.63,349.245 210.22,348.825 259.59,297.91 			"/>
			<polygon style="fill:#F0C0C0;" points="212.52,290.41 155.327,349.37 155.607,349.655 182.63,349.245 236.055,294.16 			"/>
		</g>
		<g>
			<polygon style="fill:#E9BCBA;" points="144.86,193.335 167.558,218.31 184.11,214.845 152.707,175.68 			"/>
			<polygon style="fill:#F9D4D5;" points="152.707,175.68 184.11,214.845 204.065,210.665 161.013,156.99 			"/>
			<polygon style="fill:#F9D4D5;" points="206.24,152.475 183.26,152.475 226.215,206.025 245.89,201.91 			"/>
			<polygon style="fill:#E9BCBA;" points="163.018,152.475 161.013,156.99 204.065,210.665 226.215,206.025 183.26,152.475 			"/>
			<polygon style="fill:#E9BCBA;" points="265.175,197.88 226.585,152.475 206.24,152.475 245.89,201.91 			"/>
		</g>
		<polygon style="fill:#F29D9D;" points="344.505,169.69 344.505,310.48 196.045,310.48 176.988,289.9 175.475,288.28 
			171.587,284.12 152.523,263.55 137.185,263.55 137.185,202.09 152.523,202.09 163.973,196.04 175.04,190.21 175.368,190.045 
			208.04,172.82 213.98,169.69 		"/>
		<g>
			<path style="fill:#EC7272;" d="M224.78,169.69c0,6.855-3.35,12.905-8.535,16.58c-3.4,2.485-7.555,3.94-12.04,3.94H175.04
				l0.328-0.165l32.672-17.225l5.94-3.13H224.78z"/>
			<path style="fill:#EE8181;" d="M223.05,216.615c0,0.975-0.055,1.945-0.215,2.865c-0.755,5.67-3.835,10.585-8.26,13.83
				c-3.4,2.425-7.565,3.885-12.1,3.885H163.54c-11.398,0-20.575-9.235-20.575-20.58c0-5.72,2.267-10.8,5.94-14.525h3.618l11.45-6.05
				h38.502c4.535,0,8.7,1.465,12.1,3.89c3.615,2.645,6.37,6.43,7.615,10.86C222.78,212.625,223.05,214.565,223.05,216.615z"/>
			<path style="fill:#EC7272;" d="M223.05,310.48h-27.005l-19.057-20.58h25.487c4.535,0,8.7,1.46,12.1,3.89
				C219.705,297.52,223.05,303.62,223.05,310.48z"/>
			<path style="fill:#EC7272;" d="M223.05,263.55c0,1.995-0.27,3.945-0.805,5.78c-1.3,4.425-4.055,8.26-7.67,10.905
				c-3.4,2.43-7.565,3.885-12.1,3.885h-30.888l-19.065-20.57h-9.557c0-5.67,2.267-10.855,5.993-14.585
				c3.727-3.725,8.912-5.99,14.582-5.99h38.935c4.535,0,8.7,1.405,12.1,3.885c4.37,3.185,7.45,8.1,8.26,13.77
				C222.995,261.6,223.05,262.58,223.05,263.55z"/>
		</g>
		<g>
			<polygon style="fill:#F0C0C0;" points="100.332,156.03 80.68,186.745 124.897,186.745 			"/>
			<polygon style="fill:#F0C0C0;" points="100.332,309.625 124.897,278.905 80.68,278.905 			"/>
			<polygon style="fill:#F0C0C0;" points="137.18,217.465 61.025,217.465 51.2,232.83 61.025,248.185 137.18,248.185 			"/>
			<polygon style="fill:#F9D4D5;" points="137.18,202.11 124.897,186.745 80.68,186.745 61.025,217.465 137.18,217.465 			"/>
			<polygon style="fill:#F9D4D5;" points="137.18,248.185 61.025,248.185 80.68,278.905 124.897,278.905 137.18,263.545 			"/>
		</g>
		<g>
			<path style="fill:#F3AAAA;" d="M255.45,190.21c0,2.05-0.265,3.995-0.855,5.83c-2.485,8.535-10.43,14.75-19.715,14.75h-38.94
				c-9.345,0-17.227-6.215-19.712-14.75c-0.59-1.835-0.86-3.78-0.86-5.83v-0.165l32.672-17.225l5.94-3.13h20.9
				C246.22,169.69,255.45,178.87,255.45,190.21z"/>
			<path style="fill:#F08E8E;" d="M255.45,240.07c0,11.355-9.205,20.565-20.565,20.565h-38.97c-11.36,0-20.567-9.21-20.567-20.565
				l0,0c0-11.36,9.207-20.57,20.567-20.57h38.97C246.245,219.5,255.45,228.71,255.45,240.07L255.45,240.07z"/>
			<path style="fill:#F08E8E;" d="M176.988,289.9l19.057,20.58h9.995h17.01h11.83c11.34,0,20.57-9.235,20.57-20.58
				c0-1.995-0.265-3.94-0.805-5.78c-2.535-8.525-10.42-14.79-19.765-14.79h-12.635h-15.34H195.94c-5.67,0-10.85,2.32-14.58,6.05
				c-2.432,2.425-4.215,5.4-5.133,8.74c-0.432,1.35-0.7,2.7-0.752,4.16L176.988,289.9z"/>
		</g>
		<g>
			<path style="fill:#EC7272;" d="M287.855,169.69c0,6.855-3.345,12.905-8.53,16.58c-3.405,2.485-7.56,3.94-12.045,3.94h-38.99
				c-4.48,0-8.64-1.455-12.045-3.94c-4.32-3.08-7.4-7.885-8.205-13.45l5.94-3.13H287.855z"/>
			<path style="fill:#EE8181;" d="M286.13,216.6c0,11.355-9.21,20.57-20.57,20.57h-38.965c-11.36,0-20.57-9.215-20.57-20.57l0,0
				c0-11.36,9.21-20.57,20.57-20.57h38.965C276.92,196.03,286.13,205.24,286.13,216.6L286.13,216.6z"/>
			<path style="fill:#EA6A6A;" d="M286.13,310.48h-80.09c0-5.725,2.27-10.86,5.99-14.58c0.815-0.76,1.625-1.515,2.545-2.11
				c3.4-2.43,7.555-3.89,12.04-3.89h38.935c4.535,0,8.7,1.46,12.1,3.89C282.78,297.52,286.13,303.62,286.13,310.48z"/>
			<path style="fill:#EC7272;" d="M286.13,263.53c0,11.355-9.21,20.57-20.57,20.57h-38.965c-11.36,0-20.57-9.215-20.57-20.57l0,0
				c0-11.36,9.21-20.565,20.57-20.565h38.965C276.92,242.965,286.13,252.17,286.13,263.53L286.13,263.53z"/>
		</g>
		<g>
			<path style="fill:#F3AAAA;" d="M318.525,190.235c0,11.355-9.21,20.57-20.57,20.57h-38.97c-11.36,0-20.565-9.215-20.565-20.57l0,0
				c0-11.36,9.205-20.565,20.565-20.565h38.97C309.315,169.67,318.525,178.875,318.525,190.235L318.525,190.235z"/>
			<path style="fill:#F08E8E;" d="M318.525,240.07c0,11.355-9.21,20.565-20.57,20.565h-38.97c-11.36,0-20.565-9.21-20.565-20.565
				l0,0c0-11.36,9.205-20.57,20.565-20.57h38.97C309.315,219.5,318.525,228.71,318.525,240.07L318.525,240.07z"/>
			<path style="fill:#F08E8E;" d="M318.525,289.895c0,11.36-9.21,20.57-20.57,20.57h-38.97c-11.36,0-20.565-9.21-20.565-20.57l0,0
				c0-11.36,9.205-20.56,20.565-20.56h38.97C309.315,269.335,318.525,278.535,318.525,289.895L318.525,289.895z"/>
		</g>
		<g>
			<path style="fill:#EC7272;" d="M344.505,169.69v14.85c-3.67,3.51-8.635,5.67-14.15,5.67h-38.99c-4.48,0-8.635-1.455-12.04-3.94
				c-5.185-3.675-8.53-9.725-8.53-16.58H344.505z"/>
			<path style="fill:#EE8181;" d="M349.2,216.6c0,11.355-9.205,20.57-20.565,20.57h-38.97c-11.36,0-20.57-9.215-20.57-20.57l0,0
				c0-11.36,9.21-20.57,20.57-20.57h38.97C339.995,196.03,349.2,205.24,349.2,216.6L349.2,216.6z"/>
			<path style="fill:#EA6A6A;" d="M344.505,297.355v13.125h-75.39c0-5.725,2.27-10.86,6-14.58c0.805-0.76,1.615-1.515,2.535-2.11
				c3.4-2.43,7.505-3.89,11.99-3.89h38.995C335.005,289.9,340.725,292.82,344.505,297.355z"/>
			<path style="fill:#EC7272;" d="M349.2,263.53c0,11.355-9.205,20.57-20.565,20.57h-38.97c-11.36,0-20.57-9.215-20.57-20.57l0,0
				c0-11.36,9.21-20.565,20.57-20.565h38.97C339.995,242.965,349.2,252.17,349.2,263.53L349.2,263.53z"/>
		</g>
		<g>
			<path style="fill:#F3AAAA;" d="M381.595,190.235c0,11.355-9.21,20.57-20.57,20.57h-38.97c-11.36,0-20.565-9.215-20.565-20.57l0,0
				c0-11.36,9.205-20.565,20.565-20.565h38.97C372.385,169.67,381.595,178.875,381.595,190.235L381.595,190.235z"/>
			<path style="fill:#F08E8E;" d="M381.595,240.07c0,11.355-9.21,20.565-20.57,20.565h-38.97c-11.36,0-20.565-9.21-20.565-20.565
				l0,0c0-11.36,9.205-20.57,20.565-20.57h38.97C372.385,219.5,381.595,228.71,381.595,240.07L381.595,240.07z"/>
			<path style="fill:#F08E8E;" d="M381.595,289.895c0,11.36-9.21,20.57-20.57,20.57h-38.97c-11.36,0-20.565-9.21-20.565-20.57l0,0
				c0-11.36,9.205-20.56,20.565-20.56h38.97C372.385,269.335,381.595,278.535,381.595,289.895L381.595,289.895z"/>
		</g>
		<polygon style="fill:#F0C0C0;" points="362.31,289.79 367.455,341.825 396.595,341.825 372.6,287.43 		"/>
		<polygon style="fill:#EC7272;" points="464.83,169.69 464.83,210.625 381.66,310.48 344.505,310.48 323.985,235.41 
			344.505,169.69 		"/>
		<path style="fill:#FFFFFF;" d="M408.53,202.945c0,8.485-6.87,15.365-15.355,15.365s-15.365-6.88-15.365-15.365
			c0-8.48,6.88-15.355,15.365-15.355S408.53,194.465,408.53,202.945z"/>
		<path style="fill:#565252;" d="M400.7,202.945c0,4.16-3.365,7.525-7.525,7.525c-4.16,0-7.525-3.365-7.525-7.525
			c0-4.155,3.365-7.52,7.525-7.52C397.335,195.425,400.7,198.79,400.7,202.945z"/>
		<polygon style="fill:#F9D4D5;" points="366.235,294.52 359.135,346.555 318.935,346.555 352.045,292.16 		"/>
		<g>
			<polygon style="fill:#A24949;" points="464.83,176.275 464.83,192.105 415.69,244.43 407.8,237.03 			"/>
		</g>
	</g>
</g>
</svg>
